<?xml version="1.0" encoding="utf-8"?>
<!-- Generator: Adobe Illustrator 27.4.1, SVG Export Plug-In . SVG Version: 6.00 Build 0)  -->
<svg version="1.1" id="Layer_1" xmlns="http://www.w3.org/2000/svg" xmlns:xlink="http://www.w3.org/1999/xlink" x="0px" y="0px"
	 viewBox="0 0 983.1 431.2" style="enable-background:new 0 0 983.1 431.2;" xml:space="preserve">
<style type="text/css">
	.st0{fill:#025500;}
	.st1{fill:#023600;}
	.st2{fill:#01793C;}
	.st3{fill:#027600;}
	.st4{fill:#029C00;}
	.st5{fill:#027500;}
	.st6{fill:#FCB960;}
	.st7{fill:#EB7F42;}
	.st8{fill:#D88B4E;}
	.st9{fill:#F0A44D;}
	.st10{fill:#231F20;}
	.st11{fill:#FFFFFF;}
	.st12{fill:#EF6E39;}
	.st13{fill:#FFD394;}
	.st14{fill:#BF9245;}
	.st15{fill:#F28A46;}
	.st16{fill:#D36131;}
	.st17{fill:#663D13;}
	.st18{fill:#7B4819;}
	.st19{fill:#7C491A;}
	.st20{fill:#7F4D1F;}
	.st21{fill:#8B5324;}
</style>
<g id="bigplants">
	<path class="st0" d="M169.9,389.9c-4.9-1.9-8.7-31.1-12.6-48.2c-1.6-6.7-4.3-16.4-9.4-27.9l0,0c-1.6-1.3-2.3-2.8-2.6-3.4
		c-0.8-1.6-4.4-8.7-9.2-18.5c-6.8-17.8-11.9-25-15.5-27.8c-0.2-0.2-1.3-1-2.8-2.3c-5.5-4.4-8.2-6.7-10.2-9.1c-5.1-6-6.2-13-6.6-15.8
		c-0.6-4.2-0.4-7.8,0-10.2c10.2,9.8,13.2,16.7,14,21.4c0.2,1.4,0.8,5.6,3.5,10.2c1.9,3.2,4.1,5.2,5,6c4.9,4.6,6,9.2,13.6,25.9
		c4.2,9.2,9.2,19.6,9.4,19.5c0.1,0-0.5-1.8-6.6-16.9c-7.5-18.8-7.8-19.2-8.9-22.6c-1.4-4.4-2.3-8.2-4.8-15.3c-0.9-2.4-1.9-5.1-3-8
		c-2.5-6.1-5.6-13-8-17.6c-5.7-10.6-13.6-19.6-19.7-25.7c-2-1.7-4.2-3.9-6.4-6.5c-4.6-5.6-7.2-11.1-8.8-15.3c3.6,1.3,9.2,4,14.5,9.4
		c2.8,2.9,4.7,5.7,6.1,8.1c1.1,2.3,2.7,5.7,4.7,9.8c10.1,20.4,11.8,20.6,16.6,31.6c5,11.6,9.9,25.8,11.5,32c0.3,1.2,1.5,5.9,4,11.8
		c0.5,1.2,0.9,2.1,1.2,2.7c-1.7-5.3-3-10.4-3.9-15c-1.5-7.6-1.2-10.6-2.8-15.9c-1.1-3.9-3.4-9.3-8.2-15.3c-1.1-2.1-2.3-4.9-3-8.2
		c-1.9-8.8,0.4-16.1,1.8-19.6c2.5,2.2,7.6,7.3,10.1,15.4c1.3,4.3,1.4,8.1,1.3,10.8c-0.5,3.9-0.9,9.6-0.2,16.6c0.2,2.5,0.7,5,1.5,9.9
		c1,6.4,1.8,11.4,3.5,17.3c0.7,2.3,2,5.9,4.7,13.1c2.1,5.6,3.1,8.4,5.3,14.1c6.1,15.8,11.1,28.6,13,44.3c0,0,2.7,22.1,7,27.7
		c0.9,1.2,1.4,2.1,2.3,4c1.4,2.8,1.1,3.4,0.9,3.6C171.6,390.5,170.3,390,169.9,389.9z"/>
	<path class="st1" d="M152.3,252c-3.5-6.3-6.8-12.8-10.6-19c-5.4-8.9-7.4-10.9-7.7-15.3c-0.1-1.4-0.1-4-0.7-8
		c-0.1-1-0.5-3.6-1.3-6.9c-0.5-2-0.9-3.6-1.2-4.7c-0.2-0.8-0.4-1.4-0.6-1.9c0.4,0.1,1.2,0.3,2,0.2c2-0.3,3.1-2.1,4-3.4
		c1-1.5,0.4-4.2-1.1-5.8c-1.9-2.2-5.4-2.7-7.7-1.1c-2.2,1.6-2.8,4.6-1.8,6.9c0.9,2.1,2.8,3,3.3,3.2c0.4,0.9,0.8,2.1,1.3,3.6
		c1.2,3.8,1.7,6.7,2,8.9c0.4,2.2,0.6,4,0.7,6.5c0,1.5,0,2.8-0.1,3.7c-1.5-2.4-2.6-4.7-3.3-6.5c-0.5-1.1-1.8-4.5-2.6-9.2
		c-0.5-2.5-0.6-4.3-0.8-7.1c-0.1-0.9-0.1-2.2-0.2-3.8c0-1.3-0.1-5.4,0.3-11c0.3-4,0.6-5.2,0.8-6c0.9-3.1,2-4.6,2.3-5
		c1.1-1.4,2.2-2.3,3.1-2.8c0.3,0.3,1.5,1.5,3.4,1.7c1.6,0.1,2.8-0.6,3.3-0.9c1.3-0.9,1.9-2,2.2-2.6s1.3-2.7,0.2-4.9
		c-0.1-0.3-1-1.9-2.9-2.6c-2.2-0.7-4.4,0.3-5.6,1.5c-1.6,1.6-2.1,4.1-1.4,6.4c-1,0.8-2.1,1.9-3,3.4c-1.3,1.9-1.9,3.6-2.2,4.6
		c-0.7,1.9-0.9,3.5-1,4.4c-0.6,4.5-0.7,8.8-0.6,14.6c0,5.6,0.1,6.9,0.3,8.3c0.4,2.8,0.9,5.1,1.4,6.7c-0.9-2.1-2.1-4.9-3.2-8.2
		c-0.4-1.1-1.3-3.5-2.1-6.5c-1.5-5.5-1.4-6.2-2.5-10.6c-0.6-2.1-1.8-6.7-3.5-13.3c-0.5-1.9-1.2-4.7,0.4-6.9c0.5-0.7,1.1-1.1,1.6-1.4
		c0.6,0.1,1.8,0.1,3-0.4c0.7-0.3,1.8-0.7,2.6-1.9c0.8-1.1,1.1-2.8,0.5-4.3c-0.6-1.6-2-2.3-2.3-2.4c-1.6-0.8-3.5-0.5-4.8,0.4
		c-1.8,1.3-3.1,3.9-2.2,5.9c0.5,1.1,1.3,1.7,1.8,2c-0.3,0.4-0.8,0.9-1.1,1.5c-0.7,1.2-0.8,2.3-0.8,3c-0.7-1.7-1.7-4.1-3.5-6.9
		c-1.6-2.5-2.2-2.8-5.5-7.2c-1.4-1.9-3.2-4.2-5.1-7.4c-1.4-2.2-2.4-4-3.1-5.3c0.5-0.2,1.3-0.7,1.9-1.6c1-1.4,1.5-3.6,0.5-5.5
		c-1.2-2.2-3.6-2.5-3.9-2.5c-2.3-0.3-4.7,1.1-5.6,3.3c-1.1,2.5,0.3,4.8,0.6,5.3c0.3,0.4,1.6,2.6,3.5,2.4c0.7-0.1,1.3-0.4,1.6-0.7
		c1,2.2,2,4,2.8,5.3c0.7,1.1,1.3,1.9,5.5,7.2c2.3,2.9,2.7,3.4,3.7,4.7c1.8,2.4,2.8,3.7,3.8,5.5c0.3,0.4,1.3,2.3,2.4,5.5
		c1.4,3.9,1.6,6,3.1,12.6c0.3,1.6,0.9,4,1.7,6.9c-1.3-1.1-3.2-2.8-5.3-4.8c-1.8-1.8-2.8-2.7-3.7-3.8c-1.9-2.3-2.3-3.4-5.3-7.9
		c-0.8-1.2-1.5-2.2-1.9-2.8c0.4-0.3,1.6-1.2,2-2.8c0.6-2.2-0.6-4-1.1-4.8c-0.6-0.9-1.6-2.5-3.3-2.6c-2.4-0.2-4.1,2.7-4.3,3
		c-0.2,0.4-1.9,3.2-0.5,5.5c1.2,2,3.7,2.4,4.3,2.5c0.6,0.1,1.1,0.1,1.4,0.1c0.6,0.7,1.5,1.7,2.6,3c1.8,2.4,2.1,3.2,3.8,5.7
		c1.3,1.8,2.5,3.6,4.5,5.5c1.3,1.2,1.9,1.6,4.3,3.9c1,0.9,1.9,1.9,2.7,3.4c0.5,1,0.8,1.9,0.9,2.3c0.7,2.6,1.7,5.3,3.6,10.6
		c0.6,1.5,1.6,4.4,3.4,7.8c1.6,3,3.1,5.4,4.4,7.1c-1.8-1.5-4.3-3.9-6.9-7.2c-0.2-0.2-0.7-0.9-1.6-2.1c-1.2-1.7-6.3-9.4-6.3-9.4
		c-3.9-5.9-4.4-5.2-8.1-10.9c-0.7-1-1.9-3-3.8-5.5c-1.2-1.6-2.3-2.9-3-3.7c0.3-0.4,0.9-1.3,1-2.5c0.1-1.9-1.2-3.1-1.8-3.8
		c-0.8-0.8-1.9-1.9-3.4-1.9c-2.4,0-3.8,2.7-4,3s-1.8,3.5,0.1,6c0.2,0.2,1.7,2.2,4.1,2c1.8-0.1,2.9-1.4,3.2-1.6
		c0.5,0.4,1.3,1.1,2.1,1.9c1.8,1.9,2.5,3.3,3.8,5.3c1.1,1.8,0.9,1.1,5.1,6.9c1.4,2,2.3,3.2,3.5,4.9c2.6,3.7,3.5,5.2,7.8,11.5
		c0.4,0.6,0.8,1.1,1,1.4c-0.7-0.5-1.9-1.3-3.4-2c-1.8-0.9-2.3-0.8-3.9-1.5c-2.5-1-4.1-2.4-6.3-4.2c-0.9-0.8-2.1-1.8-3.4-3.2
		c0.3-0.4,1.3-1.9,1.2-4c0-0.6-0.2-3-2.2-4.4s-4.9-1.1-6.7,0.6c-2,1.9-1.8,4.6-1.2,6.3c0.2,0.5,1.1,3,3.6,3.5c2.3,0.5,4.1-1,4.3-1.2
		c0.5,0.5,1.2,1.2,2.1,1.9c0.4,0.4,2.1,1.8,4.7,3.6c1.4,1,2.2,1.5,3.3,2c2.3,1.1,2.6,0.7,4.8,1.8c1.7,0.8,3,1.8,4.2,2.7
		c0.5,0.4,1.3,1,2.4,1.9c0.8,0.7,3.2,2.9,5.5,5.5c2.1,2.4,4.3,5.4,7.8,11.5c2.6,4.6,4.1,7.5,6,11.1c4.2,8,7.1,12.9,8.1,14.7
		c8.8,16,10,46.4,10,53.3c0,16.6-2.9,33.4,5,45.6c1,1.5,3.1,4.4,4.8,9c1.8,4.8,5.3,14.4,2.4,21.1c-0.4,0.9-1.4,3-0.5,4.4
		c0.7,1.1,2.3,1.9,3.1,1.5c0.9-0.5,1.1-2.7,0.1-5.3c0-0.2,0-0.7,0.1-1.2c0.1-2.4,0.4-4.1,0.4-4.4c0.2-1.9,0-8-2.7-14.9
		c-0.2-0.4-0.1-0.3-5.1-10.1c-3-5.9-3.3-6.4-3.7-7.5c-0.6-1.5-2.1-5.8-2.4-11.5c-0.2-3,0.1-2.8,0.4-10.1c0-0.8,0.2-5.5,0.1-11.1
		c-0.1-4.5-0.2-8-0.5-12.2c-0.9-15.3-1.3-23-2.4-27.6c-0.7-2.8-2.2-8.8-5.5-15.8C156.9,260.3,156.4,259.2,152.3,252z"/>
	<g id="Layer_11">
		<path class="st2" d="M186.9,396.2c4.5-2,7-5.5,7.5-6.1c11-15.5,22.5-52.5,22.5-52.5c0.6-2.1,2.2-7,5.5-12.7
			c1.4-2.3,2.7-4.2,3.7-5.5c2,1.5,5,3.4,9.1,4.5c4.3,1.2,7.7,1,8.4,0.9c1.9-0.1,3.2-0.5,5.5-1c4.6-1.2,5.8-2.2,6.2-2.6
			c0.5-0.5,0.9-1.1,1.9-2.5c1-1.5,1.8-2.8,2.1-3.4c1.5-2.7,1.3-2.9,2.1-3.8c1.5-1.6,2.7-1.5,2.8-2.2c0.1-0.9-1.8-1.5-5.3-3.6
			c-3.2-1.9-2.8-2-4.2-2.6c-3.2-1.5-6.3-1.2-9-0.9c-2.3,0.2-5.1,0.5-8.2,2.2c-2.3,1.3-3.7,3-4.9,4.2c-2.2,2.5-2.1,3.2-4.2,5.7
			c-1.8,2-4.7,4.7-5.3,4.2c-0.7-0.6,2.4-5.8,4.1-8.4c1.8-2.7,3.4-4.6,4.8-6.3c2.8-3.2,4.1-4.8,5.8-5.6c2.1-1,3.1-0.7,5.4-2.2
			c1.7-1.1,1.9-1.8,3.3-2.2c2.2-0.6,4.3,0.5,5,0.9c2.4,1.3,2.4,2.5,4.8,4.6c1.9,1.6,3.7,2.4,6.3,3.4c3.8,1.5,6.9,1.9,7.9,2
			c1.7,0.2,4.6,0.5,8.3-0.3c2.9-0.6,5-1,6.8-2.8c1.8-1.7,2.7-2.5,3.1-3.4c0.3-0.6,0.7-1.6,1.6-1.8c0.5-0.1,0.9,0.2,1.1,0
			c0.5-0.4-0.3-2.1-0.5-2.4c-0.9-1.9-1.8-3.8-4.1-5.7c-2-1.7-3.9-2.4-7.7-3.7c-2.6-0.9-4.1-1.5-6.4-1.7c-1.3-0.2-4.2-0.5-7.5,0.4
			c-1.7,0.5-4.1,1.8-8.8,4.5c-3.4,2-4.1,2.5-6.1,3.3c-0.9,0.4-2.8,1.1-4.9,1.8c-2.8,0.9-3.4,0.9-4.3,1.6c-0.2,0.2-1.1,0.9-2.5,1.6
			c-0.5,0.3-1,0.5-1.1,0.5c-0.1-0.2,2-2.1,3.8-3.6c2.1-1.6,2.6-1.8,5-3.6c1.7-1.2,1.4-1.2,4.4-3.5c2.9-2.3,4.4-3.5,5.9-4.4
			c2.4-1.4,2.2-0.8,4.9-2.4c2.5-1.5,3.6-2.5,5.2-2.3c0.9,0.1,1,0.5,2.4,1.2c0.9,0.5,1.9,0.9,6.5,2.1c3.2,0.8,4.8,1.2,5.4,1.3
			c3.7,0.5,6.7-0.2,8.7-0.6c0.6-0.1,3.5-0.8,7.1-2.5c1.8-0.8,4.7-2.2,7.8-5c2.3-2.1,3.6-4,4.1-4.8c1.1-1.6,1.6-2.4,2-3.7
			c0.5-1.9,0.2-3.1,1-3.7c1.1-0.8,2.9,0.4,3.2-0.1c0.3-0.4-0.9-1.8-2.5-3.1c-1.9-1.5-4.1-2.6-7.4-3.6c-1.6-0.5-5-1.3-9.6-1.4
			c-3.4-0.1-5.9-0.1-9.1,0.8c-1.4,0.4-6.5,1.9-10.5,6.4c-0.7,0.7-0.1,0.2-4.8,7c-1.9,2.8-2.9,4.1-4.5,5.7c-1.1,1.2-2.4,2.4-4.4,3.6
			c-2.5,1.4-3.2,1-5.6,2.2c-2.2,1-2.2,1.7-6.7,5.3c-3.6,2.9-3.6,2.6-6.3,4.9c-3.7,3.2-5.6,5.6-5.8,5.4s2.2-2.9,4.8-7.2
			c2.2-3.8,1.7-4.1,5.2-11c2.2-4.2,3.2-5.9,4.4-7.4c0.9-1.1,1.3-1.5,2.8-3.4c0.9-1.1,2.3-2.9,3.8-5.1c1.8-2.8,3.4-5.2,4.5-8.6
			c0.2-0.6,0.9-2.9,1.1-6c0.2-2.4,0.6-8.4-2.8-14.1c-1.7-3-2.1-1.8-5.9-7c-0.7-1-1.7-2.4-2.6-2.2c-0.7,0.2-1,1.4-1.3,2.5
			c0,0-0.9,3.6-3.5,9.6c-1.5,3.5-1.9,2.6-2.7,4.9c-1.5,4.6,0,9.1,1.6,14c0.9,2.8,1.4,4.3,2.4,5.5c0.8,1,1.8,2,2.4,3.8
			c0.4,1,0.5,1.9,0.5,2.5c-0.6,1-1.4,2.6-2.6,4.5c-2.6,4.3-3.2,4.6-4.6,7.2c-1.4,2.8-1.1,3.1-3,7.2c-1.2,2.6-2.2,4.4-3.1,6
			c-2.8,5-4.5,8.1-7.6,11.6c-1,1.1-1.8,1.9-3.8,4c-2.6,2.9-3.3,4-3.9,5c-1.1,1.8-1.5,3.2-1.7,3.2c-0.2-0.1,0.7-2.3,1.1-5.5
			c0.4-2.8-0.1-3.2,0.1-8c0.1-2.6,0.1-3.9,0.4-5c0.6-2.3,1.4-3.3,1.8-5.9c0-0.3,0.2-1.4,0.1-2.9c-0.1-2.6-0.9-4.6-1.8-6.6
			c-2.4-5.2-3.6-7.9-6.5-10.4c-1.5-1.2-3.9-2.1-8.7-4c0,0-1.6-0.6-5.1-0.7c-0.4,0-1.1,0-1.4,0.4c-0.5,0.6,0.2,1.5,0.4,2.7
			c0.3,1.8-0.6,2.8-1.1,4.5c-0.4,1.4-0.2,3.4,0.3,7.3s0.7,5.8,1.3,7.8c0.8,2.9,1.6,6,4.1,9.1c0.7,0.9,5.5,7,9.6,5.8
			c2.8-0.8,3.8-4.7,4.8-4.4c0.3,0.1,0.6,0.6,0.2,4.9c-0.3,3-0.7,5.1-1.1,7.4c-1.1,6-1.1,6.1-1.5,8.2c-0.6,3.2-0.9,4.9-1.4,6.4
			c-0.8,2.7-1.1,3.2-2.1,6.1c-1.4,4.3-1.9,7.5-2.3,9c-1.2,5.9-7.5,25.3-21.1,43.3c-4.6,6.2-10.3,12.3-9.2,13.5
			C183.9,397.5,185.7,396.7,186.9,396.2z"/>
	</g>
	<path class="st0" d="M173.6,391.8c-0.4-2.3-0.6-3.5-0.7-3.6c-0.8-2.9-1.1-5.9-1.7-8.8c-0.3-1.8-1.3-6.7-2-12.7
		c-0.5-4-0.9-7.8-0.8-12.8c0.1-4.1,0.2-7.5,1.4-11.6c1.1-3.5,2.5-6.2,3.7-8c0.2,0.3,0.6,0.8,1.1,1.3c1.7,1.7,3.7,2.2,5,2.5
		c1.2,0.3,5.7,1.3,10.4-0.9c3.3-1.6,5.2-4,6.7-5.9c1.1-1.4,1.8-2.7,2.5-4c0.7-1.2,1.1-1.9,1.1-2.4c0-1.7-2.5-2.3-6.2-4.9
		c-3.1-2.1-2.6-2.5-4.1-3.3c-3.6-1.8-8.9-0.9-12.4,1.9c0,0-5.2,4.1-5.4,11.7c0,0.2,0,0.7-0.1,1.5c-0.3,2-1.1,3.3-1.6,4.1
		c-1.6,2.9-2.3,5.6-2.8,7.6c-0.4,1.6-0.6,3.1-0.7,4.2c-0.5-1.5-1-3-1.4-4.6c-0.6-2.4-1.2-5-2.1-17.7c-1.1-14.3,0-5.8-0.4-11.3
		c-0.1-1.1-0.2-2.6,0.3-4.4c0.5-2,1.2-2.2,2.5-5.1c1.1-2.5,0.9-3,1.9-4.5c0.2-0.3,1.1-1.7,2.9-3c2.9-2.2,5-2.1,9.9-3.6
		c4-1.2,6.9-2.1,9.6-4.2c2.4-1.8,2.5-2.9,5.4-4.8c0.6-0.4,1.2-0.7,1.2-1.2c0.1-1.6-5.1-3-7.1-3.6c-4.3-1.2-6.5-1.8-8.4-1.3
		c-5.4,1.4-8.3,8-9,9.5c-1.3,3.1-1.3,5.2-3.6,8.2c-0.5,0.7-1.3,1.5-2.1,3c-0.7,1.3-1,2.1-2,4.4c-0.6,1.4-1.1,2.5-1.4,3.2
		c0.2-2.7,0.4-7.1,0.7-12.5c1.3-29.5,1.9-83.6,1.1-111.3l0,0c0.9-1.8,1-3.5,1-4.1c0.1-1.8,0.5-9.8,0.8-20.7c-1-19,0.6-27.6,2.8-31.7
		c0.1-0.2,0.8-1.5,1.7-3.2c3.2-6.3,4.8-9.4,5.6-12.4c2.2-7.6,0.4-14.4-0.4-17.1c-1.1-4.1-2.9-7.3-4.1-9.3
		c-5.3,13.1-5.2,20.7-4.1,25.2c0.4,1.4,1.6,5.5,1,10.8c-0.4,3.8-1.6,6.4-2.1,7.6c-2.6,6.2-1.8,10.9-1.9,29.2
		c0,10.1-0.3,21.6-0.6,21.6c-0.1,0-0.3-1.8-0.9-18.1c-0.8-20.2-0.7-20.7-1.2-24.3c-0.6-4.6-1.2-8.5-1.9-15.9
		c-0.2-2.6-0.4-5.4-0.5-8.6c-0.3-6.6-0.2-14.2,0.1-19.3c0.8-12,4.4-23.5,7.4-31.5c1.1-2.4,2.3-5.3,3.2-8.6c1.9-7,2-13.1,1.7-17.5
		c-2.7,2.7-6.8,7.4-9.4,14.5c-1.4,3.7-2,7.2-2.2,9.9c0,2.5-0.1,6.3-0.3,10.8c-0.8,22.7-2.4,23.6-2.2,35.6
		c0.2,12.6,1.6,27.6,2.7,33.9c0.2,1.2,1.1,5.9,1.2,12.4c0,1.3,0,2.3,0,3c-0.6-5.6-1.5-10.7-2.6-15.3c-1.7-7.5-3.2-10.2-4-15.6
		c-0.5-4-0.7-9.8,1.2-17.3c0.2-2.4,0.1-5.4-0.6-8.7c-1.8-8.8-7-14.6-9.6-17.1c-1.4,3.1-4,9.8-2.9,18.2c0.6,4.4,2,7.9,3.2,10.4
		c2,3.3,4.8,8.4,7,15.1c0.8,2.4,1.4,4.8,2.7,9.6c1.7,6.2,3,11.1,3.9,17.2c0.3,2.4,0.6,6.2,1.1,13.9c0.2,3.2,0.6,9.7,0.9,15
		c1.3,26.3,1.2,55.5,1.2,55.5c0,5.9-0.1,17.7-0.6,32.2c-0.3,8.6-0.6,15.9-0.6,15.9c-0.4,10.4-0.8,15.5-1.1,25.7
		c-0.1,4.6-0.2,6.8-0.2,8.4c0,13.9,1.7,24.3,2.1,26.5c0.4,2.5,1.3,6.9,3.1,15.8c0.4,2.3,0.8,4.2,1.1,5.4c-0.5-0.6-1.1-1.6-1.9-2.9
		c-1.7-2.9-2.6-5.1-3.3-6.7c-2.8-6.7-3.5-6.1-4.8-9.9c-0.8-2.2-1.9-5.6-1.6-9.8c0.3-4.8,2.1-5.6,3.4-12.8c0.6-3.3,0.9-5,0.5-6.9
		c-0.7-3.3-3-6.8-6.1-9.2c-2.4-1.8-4.6-2.5-5.1-4.9c-0.2-0.9,0-1.5,0.1-2.4c0.5-3.7-1.1-6.8-2.6-9.8c-2.1-4.1-3.1-6.1-5.5-7.1
		c-2.9-1.2-5.8-0.1-9.8,1.3c-2.8,1-4.4,2.1-6.6,3.6c-4.8,3.2-4.9,4.7-4.9,5.3c0,0.8,0.4,1.4,0.7,1.7c6.9,9.8,12.9,11.1,12.9,11.1
		c0.9,0.2,7.5,1.6,12.9-2c0.5-0.4,0.9-0.7,1.2-0.9c0.3,0.6,0.9,1.5,1.7,2.4c1.2,1.3,2,1.7,4.1,3.3c1.7,1.3,2.6,2,3.2,2.6
		c1.8,2.1,2.2,4.6,2.4,5.7c0.2,1.7,0.1,3.3-1.9,9.9c-1.7,5.7-1.7,4.9-2,6.3c-1.1,5.8,0.4,10.7,1.1,12.8c0.6,1.8,0.6,1.5,3.7,7.8
		c2.2,4.6,3.9,8,5.5,12.3c1.7,4.2,2.7,7.6,3.2,9.1c2.1,6.9,3.1,10.4,3,13.5c-0.1,3-0.7,5.9,0.5,6.5c0.6,0.3,1.5,0,2-0.5
		C174,394.6,173.9,393.6,173.6,391.8z"/>
	<path class="st3" d="M199.3,303.6c-3.4,4.8-5.7,9.3-7.2,12.9c-3.1,7.2-4.8,14.3-5.2,18.3c-0.1,1.3-0.6,5.4-2,10.7
		c-0.2,0.8-0.4,1.3-0.6,2.1c-1.2,3.5-2.4,4.5-3.2,7.2c-0.4,1.4-0.4,2.3-0.5,3.8c-0.4,7.2,0-6-1.3,16.1c-0.8,13.3-0.6,12.7-0.8,13.3
		c-0.9,3.6-2.2,7.1-0.6,8.7c0.6,0.6,1.6,0.9,2.2,0.6c0.8-0.5,0.4-2.1,0.4-4.4c-0.1-2.5,0.4-2.3,0.8-6.7c0.5-4.8-0.1-4.6,0.4-7.9
		c0.4-3,1.2-5.2,1.8-6.9c0.8-2.4,1.3-3.6,2.4-5.1c0.6-0.8,1.7-2.2,3.6-3.4c1.1-0.6,2.2-1,4.6-1.6c1.6-0.5,3-0.8,4.1-1
		c4.4-0.9,5.1-0.7,7.3-1.4c1.9-0.6,3.2-1.3,4.6-2c3.4-1.8,5.8-3.8,7.7-5.5c1.8-1.6,1.3-1.3,4.8-4.5c2.9-2.7,3.3-2.9,5.1-4.8
		c0.9-1,2.1-2.2,4.4-4.8c4.1-4.6,4.2-4.9,4.1-5.1c-0.6-2.6-12.1-3.2-22.4-0.8c-4.9,1.1-10.2,2.4-15.2,6.7c-3.7,3.2-5.5,6.5-8.9,13
		c-2.1,4-4.5,9.2-6.5,15.6c-0.1-1.1-0.1-2.7-0.1-4.6c0.1-3.1,0.1-5,0.7-7.3c0.6-2.5,1.6-4.5,2.4-6c1.1-2.3,1.4-2.3,1.7-3.5
		c0.4-1.8,0-2.7,0.4-5.6c0.1-0.9,0.2-1.5,0.4-2.4c1.1-5.5,1.2-7,1.7-9.2c0.4-2,1.6-7.6,4.6-13.6c1.1-2.3,2.4-4.3,5-8.3
		c3-4.6,3.9-5.6,10-14.1c6.3-8.8,6.7-9.6,8.7-10.8c3.7-2.3,4.8-0.9,12.4-3.4c5.7-1.9,5.6-2.8,12.4-5.3c7.4-2.7,11.4-3.1,11.3-4
		c-0.1-1.1-6.9-1.4-10.8-1.3c-6.5,0.1-11.3,0.1-16.1,2.9c-5.1,3-7.3,7.4-7.6,7.1c-0.3-0.2,1.4-3.9,4.8-6.3c2.2-1.6,2.9-1,5.4-2.7
		c2.4-1.7,2.1-2.4,5-4.9c2.3-1.9,2.8-1.6,4.7-3.5c0.5-0.5,0.7-0.7,3.5-4c3.2-3.8,3.2-3.9,3.6-4.3c1.2-1.7,2-3.4,3.1-5.5
		c1.3-2.5,1.1-2.4,1.6-3.3c0.8-1.2,2.2-3.2,4.5-4.2c0.3-0.1,0.7-0.3,0.7-0.4c0-0.3-2.5-0.2-4.2,0.1c-3.1,0.5-4.8,1.9-8.3,4.1
		c-5.3,3.3-4.9,2.2-7.8,4.4c-3.3,2.5-5.3,5.1-8,8.8c-1.1,1.5-2.7,3.7-4.4,6.6c-3,5-3.9,8-5.7,11.9c-2.1,4.6-4.9,8.8-10.4,17.1
		c-2.8,4.2-5.3,7.9-7.4,10.7"/>
	<path class="st1" d="M238.9,266.8c5.2-5,10.2-10.3,15.6-15.1c7.8-7,10.2-8.3,11.8-12.4c0.5-1.3,1.3-3.8,3-7.5
		c0.4-0.9,1.5-3.3,3.2-6.2c1-1.8,1.9-3.2,2.5-4.1c0.4-0.7,0.8-1.2,1.1-1.7c-0.5,0-1.2-0.1-2-0.4c-1.8-0.9-2.3-2.9-2.8-4.4
		c-0.5-1.7,0.9-4.1,2.7-5.2c2.5-1.5,6-1,7.6,1.2c1.7,2.2,1.3,5.2-0.2,7.1c-1.5,1.8-3.6,2-4.1,2.1c-0.6,0.7-1.4,1.8-2.3,3.1
		c-2.2,3.2-3.5,5.9-4.5,7.9c-1,2.1-1.8,3.7-2.5,6c-0.5,1.4-0.8,2.7-1,3.6c2.1-1.9,3.8-3.8,5-5.3c0.8-1,3-3.8,5.2-8
		c1.2-2.3,1.8-3.9,2.8-6.5c0.3-0.9,0.8-2.1,1.3-3.6c0.4-1.3,1.7-5.1,2.9-10.7c0.9-3.9,0.9-5.2,0.9-5.9c0.1-3.2-0.6-5-0.8-5.4
		c-0.6-1.6-1.5-2.8-2.1-3.5c-0.4,0.2-1.8,1-3.7,0.6c-1.6-0.4-2.5-1.4-2.9-1.8c-1-1.2-1.2-2.4-1.3-3.1c-0.1-0.6-0.4-3,1.2-4.8
		c0.2-0.2,1.5-1.6,3.5-1.6c2.3-0.1,4.1,1.5,4.9,3.1c1.1,2,0.9,4.5-0.5,6.5c0.7,1.1,1.4,2.4,1.9,4.1c0.7,2.2,0.8,4,0.8,5.1
		c0.1,2-0.2,3.6-0.3,4.5c-0.7,4.5-1.9,8.6-3.6,14.1c-1.6,5.3-2.1,6.6-2.7,7.9c-1.2,2.6-2.4,4.6-3.3,6c1.5-1.8,3.4-4.1,5.5-6.9
		c0.7-1,2.2-3,3.9-5.6c3-4.8,3.1-5.6,5.5-9.4c1.1-1.8,3.7-5.9,7.2-11.7c1-1.6,2.5-4.2,1.6-6.7c-0.3-0.8-0.7-1.4-1.1-1.8
		c-0.6-0.1-1.7-0.4-2.8-1.3c-0.6-0.4-1.5-1.2-2-2.5c-0.4-1.3-0.3-3,0.7-4.3c1.1-1.3,2.5-1.6,2.9-1.7c1.7-0.3,3.5,0.5,4.5,1.8
		c1.4,1.8,1.8,4.6,0.4,6.3c-0.8,0.9-1.8,1.3-2.4,1.4c0.2,0.4,0.5,1.1,0.6,1.8c0.3,1.3,0.1,2.5-0.1,3.1c1.1-1.4,2.9-3.5,5.3-5.6
		c2.3-1.9,2.9-2,7.4-5.3c1.9-1.4,4.3-3.1,7.1-5.6c1.9-1.7,3.5-3.1,4.5-4.2c-0.4-0.4-1-1.1-1.4-2.1c-0.6-1.6-0.4-3.9,1.2-5.4
		c1.8-1.7,4.2-1.3,4.5-1.3c2.3,0.4,4.2,2.4,4.4,4.8c0.3,2.7-1.7,4.5-2.1,4.9c-0.4,0.3-2.3,2-4,1.3c-0.7-0.3-1.1-0.8-1.3-1.1
		c-1.6,1.9-3.1,3.3-4.3,4.3c-1,0.9-1.8,1.5-7.4,5.3c-3.1,2.1-3.6,2.5-4.9,3.4c-2.5,1.8-3.8,2.8-5.3,4.2c-0.4,0.4-1.9,1.8-3.9,4.6
		c-2.5,3.3-3.3,5.2-6.6,11.1c-0.8,1.4-2,3.5-3.6,6.1c1.6-0.7,3.8-1.7,6.4-3.1c2.3-1.2,3.4-1.8,4.6-2.6c2.4-1.6,3.1-2.6,7.3-6
		c1.1-0.9,2-1.6,2.6-2.1c-0.3-0.4-1.2-1.6-1.1-3.3c0.1-2.3,1.8-3.7,2.5-4.3c0.9-0.7,2.3-1.9,3.9-1.6c2.4,0.5,3.2,3.8,3.3,4.2
		c0.1,0.5,0.9,3.6-1.1,5.4c-1.7,1.6-4.2,1.2-4.8,1.2c-0.6-0.1-1.1-0.2-1.4-0.4c-0.8,0.4-2,1.2-3.3,2.2c-2.4,1.7-2.9,2.5-5.2,4.3
		c-1.8,1.4-3.4,2.7-5.9,3.9c-1.6,0.8-2.3,1-5.3,2.5c-1.2,0.6-2.4,1.2-3.6,2.4c-0.8,0.8-1.3,1.6-1.5,2c-1.4,2.3-3.1,4.6-6.5,9.1
		c-1,1.3-2.8,3.7-5.5,6.5c-2.4,2.4-4.6,4.3-6.2,5.6c2.1-0.9,5.2-2.5,8.7-4.9c0.3-0.2,0.9-0.6,2.1-1.5c1.6-1.3,8.8-7.2,8.8-7.2
		c5.5-4.5,5.7-3.7,10.9-8.1c0.9-0.8,2.7-2.3,5.3-4.2c1.6-1.2,3-2.1,4-2.7c-0.2-0.5-0.5-1.5-0.2-2.7c0.5-1.8,2-2.7,2.9-3.1
		c1-0.6,2.4-1.3,3.8-0.8c2.3,0.7,2.8,3.6,2.9,4.1c0.1,0.3,0.7,3.8-1.8,5.7c-0.2,0.2-2.2,1.6-4.5,0.8c-1.7-0.6-2.4-2.2-2.5-2.5
		c-0.6,0.3-1.5,0.7-2.6,1.3c-2.3,1.3-3.4,2.5-5.1,4c-1.6,1.4-1.1,0.8-6.9,5.1c-2,1.5-3.1,2.4-4.8,3.6c-3.5,2.8-4.9,4-10.8,8.8
		c-0.6,0.5-1.1,0.9-1.4,1.1c0.9-0.3,2.2-0.7,3.8-0.9c2-0.3,2.5-0.1,4.1-0.3c2.7-0.3,4.6-1.1,7.2-2.2c1.1-0.5,2.5-1.1,4.2-2.1
		c-0.2-0.5-0.7-2.2,0-4.2c0.2-0.5,1.1-2.8,3.4-3.5s5,0.4,6.2,2.5c1.4,2.3,0.4,5-0.7,6.4c-0.3,0.4-1.9,2.5-4.5,2.3
		c-2.3-0.2-3.6-2.1-3.8-2.4c-0.6,0.3-1.5,0.8-2.6,1.2c-0.5,0.2-2.6,1.1-5.5,2c-1.6,0.5-2.5,0.8-3.7,1c-2.5,0.4-2.7-0.1-5.1,0.3
		c-1.9,0.3-3.4,0.8-4.8,1.3c-0.6,0.2-1.5,0.6-2.8,1.2c-1,0.5-3.9,1.8-6.9,3.7c-2.7,1.7-5.7,3.9-10.8,8.8c-3.9,3.7-6,6-8.9,8.9
		c-6.3,6.4-10.5,10.3-12,11.7c-13,12.7-23,41.5-25,48.1c-4.8,15.9-6.9,32.9-18,42.2c-1.4,1.1-4.2,3.3-7.1,7.2
		c-3.1,4.1-9.2,12.2-8.4,19.5c0.1,1,0.5,3.2-0.8,4.4c-1,0.9-2.7,1.2-3.4,0.5c-0.8-0.8-0.3-2.9,1.5-5.1c0.1-0.2,0.2-0.6,0.3-1.2
		c0.5-2.3,0.8-4,0.9-4.3c0.4-1.9,2.4-7.7,6.9-13.5c0.3-0.3,0.2-0.3,7.8-8.2c4.6-4.8,5-5.2,5.7-6.1c1-1.3,3.6-5,5.7-10.3
		c1-2.8,0.7-2.7,2.5-9.8c0.2-0.7,1.4-5.3,3.1-10.6c1.3-4.2,2.5-7.6,4-11.5c5.3-14.4,7.9-21.6,10.3-25.7c1.4-2.5,4.7-7.7,9.8-13.5
		C232.1,273.4,232.9,272.5,238.9,266.8z"/>
	<path class="st1" d="M228.6,247.8c4.8-6.2,9.3-12.6,14.3-18.5c7.2-8.7,9.6-10.4,10.7-15.1c0.3-1.4,0.8-4.2,2-8.4
		c0.3-1,1.1-3.8,2.5-7.1c0.8-2,1.6-3.7,2.1-4.8c0.4-0.8,0.7-1.5,0.9-2c-0.5,0.1-1.3,0.1-2.2-0.1c-2-0.6-2.9-2.7-3.7-4.3
		c-0.8-1.8,0.3-4.5,2-6c2.4-2,6.2-2,8.3,0.1c2.1,2.1,2.2,5.3,0.9,7.6c-1.3,2.1-3.5,2.7-4,2.8c-0.5,0.9-1.2,2.1-1.9,3.6
		c-1.9,3.8-2.9,6.9-3.6,9.1c-0.8,2.3-1.3,4.2-1.8,6.8c-0.3,1.6-0.4,3-0.5,4c2-2.4,3.5-4.6,4.6-6.4c0.7-1.2,2.6-4.5,4.3-9.3
		c0.9-2.6,1.3-4.5,2-7.4c0.2-1,0.5-2.3,0.8-4c0.3-1.4,1-5.7,1.4-11.8c0.3-4.3,0.2-5.7,0.1-6.5c-0.4-3.4-1.4-5.2-1.7-5.7
		c-0.9-1.6-2-2.8-2.8-3.4c-0.4,0.3-1.8,1.4-3.8,1.2c-1.8-0.1-2.9-1.1-3.4-1.5c-1.2-1.1-1.7-2.4-1.9-3.1c-0.2-0.7-0.9-3.1,0.6-5.3
		c0.2-0.3,1.3-1.9,3.5-2.3c2.4-0.4,4.6,1,5.7,2.5c1.5,2,1.6,4.7,0.5,7c0.9,1,1.9,2.4,2.7,4.1c1.1,2.2,1.4,4.1,1.6,5.3
		c0.4,2.1,0.4,3.8,0.4,4.9c-0.1,4.9-0.7,9.5-1.6,15.6c-0.9,5.9-1.2,7.3-1.6,8.8c-0.8,3-1.8,5.3-2.6,6.9c1.3-2.1,3-4.9,4.8-8.3
		c0.6-1.2,1.9-3.5,3.3-6.5c2.5-5.6,2.4-6.4,4.4-10.8c0.9-2.1,3-6.9,5.8-13.6c0.8-1.9,2-4.9,0.7-7.4c-0.4-0.8-1-1.4-1.4-1.8
		c-0.7,0-1.9-0.2-3.2-0.9c-0.7-0.4-1.8-1-2.5-2.4c-0.7-1.3-0.8-3.1,0.1-4.6c0.9-1.6,2.5-2.1,2.9-2.2c1.8-0.6,3.8,0,5.1,1.2
		c1.7,1.7,2.6,4.6,1.4,6.7c-0.7,1.1-1.7,1.6-2.3,1.9c0.3,0.4,0.7,1.1,1,1.8c0.5,1.4,0.5,2.6,0.4,3.4c1-1.7,2.5-4.1,4.8-6.8
		c2.1-2.4,2.8-2.6,7.1-6.8c1.8-1.8,4.1-4,6.7-7c1.8-2.1,3.2-3.9,4.2-5.2c-0.5-0.3-1.2-1-1.8-2c-0.9-1.7-1-4.1,0.4-6
		c1.6-2.1,4.3-2.1,4.5-2c2.5,0.1,4.8,1.9,5.5,4.4c0.7,2.9-1.1,5.1-1.5,5.5s-2.1,2.5-4.1,2c-0.7-0.2-1.3-0.7-1.6-1
		c-1.4,2.2-2.8,4-3.9,5.2c-0.9,1.1-1.7,1.9-7.1,6.8c-3,2.8-3.4,3.2-4.7,4.4c-2.4,2.3-3.6,3.5-5,5.3c-0.3,0.4-1.7,2.3-3.5,5.5
		c-2.1,3.9-2.7,6.1-5.3,12.9c-0.6,1.6-1.6,4.1-2.9,7.1c1.6-1,3.8-2.4,6.4-4.3c2.3-1.6,3.4-2.5,4.6-3.5c2.3-2.1,3-3.2,6.9-7.5
		c1.1-1.2,1.9-2.1,2.5-2.6c-0.4-0.4-1.5-1.6-1.7-3.4c-0.3-2.4,1.3-4.2,2-4.9c0.8-0.9,2.1-2.4,3.9-2.3c2.6,0.1,4,3.5,4.1,3.9
		c0.2,0.5,1.5,3.7-0.3,6c-1.5,2-4.3,2-5,2c-0.6,0-1.2-0.1-1.6-0.2c-0.8,0.6-1.9,1.6-3.2,2.8c-2.3,2.2-2.7,3.1-4.9,5.4
		c-1.7,1.8-3.2,3.4-5.6,5.1c-1.5,1.1-2.3,1.4-5.3,3.5c-1.2,0.8-2.4,1.7-3.4,3.2c-0.7,1-1.1,1.9-1.3,2.3c-1.1,2.7-2.6,5.4-5.5,10.7
		c-0.9,1.5-2.4,4.4-4.9,7.7c-2.2,3-4.2,5.3-5.8,6.9c2.1-1.3,5.2-3.5,8.5-6.6c0.2-0.2,0.9-0.8,2-1.9c1.6-1.6,8.3-9,8.3-9
		c5.1-5.7,5.5-4.9,10.3-10.3c0.9-1,2.5-2.9,5-5.3c1.6-1.5,2.9-2.7,3.8-3.5c-0.3-0.5-0.8-1.5-0.6-2.8c0.2-2,1.8-3.2,2.6-3.8
		c1-0.7,2.3-1.8,4-1.5c2.5,0.4,3.6,3.4,3.7,3.9c0.1,0.3,1.3,4-1,6.4c-0.2,0.2-2.1,2.1-4.7,1.5c-1.9-0.4-2.9-1.9-3.1-2.3
		c-0.6,0.4-1.5,0.9-2.5,1.7c-2.2,1.8-3.2,3.2-4.9,5.1c-1.5,1.7-1.1,1.1-6.6,6.6c-1.9,1.9-3,3-4.5,4.6c-3.3,3.5-4.6,5-10.1,11.1
		c-0.6,0.6-1,1.1-1.3,1.4c0.9-0.4,2.2-1.1,3.9-1.6c2.1-0.6,2.6-0.5,4.4-0.9c2.8-0.7,4.8-1.9,7.4-3.5c1.1-0.7,2.5-1.6,4.1-2.9
		c-0.3-0.5-1.1-2.2-0.7-4.4c0.1-0.6,0.7-3.2,3.1-4.3s5.4-0.4,7,1.7c1.8,2.3,1.2,5.2,0.3,6.9c-0.3,0.5-1.7,3-4.4,3.1
		c-2.5,0.2-4.2-1.7-4.4-2c-0.6,0.5-1.5,1.1-2.6,1.7c-0.5,0.3-2.6,1.6-5.6,3c-1.7,0.8-2.5,1.2-3.8,1.6c-2.6,0.8-2.9,0.3-5.4,1.1
		c-2,0.6-3.5,1.4-4.9,2.2c-0.6,0.3-1.5,0.8-2.8,1.7c-1,0.6-3.9,2.5-6.8,5c-2.6,2.2-5.4,5-10.1,11c-3.5,4.5-5.5,7.3-8.2,10.9
		c-5.7,7.8-9.6,12.6-11,14.4c-11.9,15.6-18.1,47.9-19.2,55.2c-2.7,17.7-2.2,36.1-12.6,47.8c-1.3,1.4-4,4.2-6.5,8.8
		c-2.7,4.8-7.9,14.5-5.9,22.1c0.3,1,1,3.4-0.1,4.8c-0.9,1.1-2.7,1.7-3.5,1c-0.9-0.7-0.8-3,0.8-5.6c0-0.3,0.1-0.7,0.1-1.3
		c0.2-2.5,0.3-4.4,0.3-4.7c0.1-2.1,1.3-8.6,5.3-15.4c0.2-0.4,0.2-0.3,7.1-9.9c4.1-5.8,4.5-6.3,5.1-7.4c0.9-1.5,3.1-5.9,4.4-11.9
		c0.7-3.1,0.3-3,1.2-10.8c0.1-0.8,0.7-5.9,1.6-11.8c0.8-4.7,1.5-8.5,2.4-12.9c3.4-16.2,5.1-24.3,7-29c1.2-2.9,3.8-9,8.3-15.9
		C222.4,255.9,223.2,254.9,228.6,247.8z"/>
	<g id="Layer_9">
		<path class="st4" d="M185.6,393.7c0.7-0.7-0.4-2.9-0.7-3.4c-2-3.3-1.8-11.8-1.9-26c-0.1-15.8-0.4-13.1-0.3-17
			c0.3-6.8,1.8-24.7,10.4-43.7c2-4.4,3.4-6.8,6.1-13.5c3.2-7.8,5-12.2,6.5-18.5c1.2-4.9,1.1-6.8,2.8-10.8c0.4-0.8,2.1-4.9,5.5-9.4
			c1.1-1.4,2.6-3.5,5.1-5.8c2.4-2.2,4.8-3.8,6.6-4.8c2.7,0,6.9-0.1,12-0.7c16.4-2,26.2-7.3,46-15.3c6.3-2.6,15.9-6.3,27.9-10.5
			c-3.9-0.6-33.4-5.1-56.2,3.2c-3.7,1.3-17,6.2-23,13.2c-0.7,0.8-3.1,3.8-6.8,7.3c-2.8,2.6-4.3,3.8-6.1,5.3
			c-2.7,2.4-6.3,6.2-9.6,12.3c0.6-3.4,1.2-6.9,1.8-10.3c-0.1-6.3-0.5-12.8-1-19.6c-1.4-18.1-4.1-34.7-7.3-49.6
			c-0.5-2.6-1.1-5.3-1.6-7.9c2.4-1.3,5.6-3.2,9.1-6.1c1.2-1,3.8-3.3,8.1-8.3c3.3-3.9,5.4-6.8,9.1-12.1c7.3-10.3,10.9-15.5,11.6-16.5
			c2.4-3.9,5.7-9.6,9-16.9c-13.9,13-21.1,21.8-24.9,27.1c-1.5,2.1-9.5,13.2-13.2,18.6c-0.4,0.5-1.8,2.6-3.8,5.3
			c-1.5,2.1-2.8,3.8-3.6,4.9c0.8-2,1.6-4.2,2.4-6.5c1-3.1,1.9-6,2.5-8.8c5.4-3.3,20.4-13.5,25.9-32.4c1.6-5.6,2-10.8,2-15
			c-4.4,8-8.7,13.9-11.9,17.8c-4.2,5.2-6.6,7.2-9.7,11.9c-4.3,6.6-6.3,12.9-7.3,17.2c1.8-6.3,5.1-15.6,11-26
			c8.9-15.6,16.5-20.5,25.6-35.5c3.9-6.5,9-16.4,12.9-29.8C246,68.9,237.7,80,231.5,89c0,0-13.7,19.9-17.4,35.8
			c-0.3,1.3-0.5,2.2-0.4,2.2c0.2,0.1,3.9-9.9,5.9-21.8c0.9-5.7,1.7-12.9,1.4-21.4c-2.9,8.4-4.4,15.3-5.3,20.2
			c-0.6,3.1-0.8,5-2.2,13.2c-1,5.9-1.8,10.8-2.4,14c-1.3,5.6-2.6,11.2-4,16.8c0.5-3.7,1-12.1-3.2-21.4c-3-6.6-7.2-10.9-9.9-13.2
			c0.7,8.3,3.2,13.8,5.3,17.4c1.6,2.7,3.2,4.4,4.6,7.9c1.9,4.9,1.8,9.5,1.4,12.7c-0.7,2.3-1.4,4.6-2.2,6.9c0.3-1.6,0.5-4.1,0-7.1
			c-1.3-7-6.3-11.3-10.1-14.5c-6.2-5.3-12.9-7.9-17.8-9.1c5.1,8.5,10.5,13.4,14.6,16.4c3.5,2.5,9.4,6,10.3,12.1c0.2,1.2,0.1,2.3,0,3
			c0,1.5,0,3,0,4.6c-1.5-4.2-3.7-8.9-6.9-13.9c-9.3-14-21.9-21-28.9-24.1c3.1,5.9,7.6,13.1,13.9,20.6c6,7.1,12,12.5,17.1,16.5
			c1.4,2.1,3.3,5.3,4.8,9.5c1,3,1.2,5.3,1.8,7.8c0.7,2.9,1.8,7.8,3.2,16.1c-1.6-3.7-4.3-8.8-8.6-14.1c-1.1-1.4-4-4.9-8.5-8.7
			c-3.3-2.8-8.3-6.5-15-9.7c5.5,13.7,11,20.1,15.2,23.3c0.9,0.7,4.3,3.2,9.5,7.3c3.4,2.7,6.1,4.9,7.9,6.3c0.5,4.8,0.9,9.6,1.4,14.4
			c0.9,9.2,1.6,18.4,2.4,27.5c-0.9-4.4-2.6-10.8-6.1-17.8c-3.1-6.2-10.5-21.2-27.6-29.7c-11.9-5.9-23.2-6.1-29.8-5.5
			c8.7,5.6,17.8,11.3,27.2,16.9c5.3,3.2,10.6,6.2,15.8,9.2c3,1.6,6,3.2,9,4.8c2,2.6,4.3,6.1,6.3,10.6c2.7,6,3.8,11.4,4.2,15.4
			c-0.3,2.1-0.6,3.9-0.8,5.3c-0.2,1.3-0.8,5-1.9,9.9c-0.5,2.4-1,4.1-1.6,6.5c-1.7,6.7-2.5,10-4.1,14.5c-3,8.5-6.2,14.1-7.8,17.1
			c-3.6,6.9-7.9,17.7-10.1,34.1c-0.4,3.3-0.8,7.9-1.2,13.4c-0.4,7-0.3,8.5-0.4,24.1c-0.1,12.8-0.3,20.8,2.8,22.1
			C183.5,393.6,185,394.3,185.6,393.7z"/>
		<path class="st4" d="M165,397.1c0.6-0.8-0.9-2.8-1.3-3.2c-2.5-3-3.6-11.3-6-25.4c-2.6-15.5-2.5-12.8-3-16.8
			c-0.8-6.8-2.1-24.7,3.3-44.8c1.2-4.6,2.3-7.2,3.9-14.3c1.9-8.2,3-12.8,3.4-19.2c0.4-5.1,0-6.9,1.1-11.1c0.2-0.9,1.3-5.1,3.9-10.2
			c0.8-1.6,2-3.9,4.1-6.6c2.1-2.6,4.1-4.5,5.7-5.8c2.6-0.4,6.8-1.2,11.7-2.6c15.9-4.6,24.7-11.4,42.9-22.5
			c5.8-3.6,14.7-8.8,25.8-14.8c-4,0-33.8,0.3-54.9,12.1c-3.4,1.9-15.8,8.8-20.6,16.7c-0.5,0.9-2.4,4.2-5.6,8.3
			c-2.3,3-3.7,4.4-5.1,6.2c-2.3,2.8-5.2,7.1-7.6,13.6c0-3.5,0.1-7,0.1-10.5c-1.2-6.2-2.5-12.6-4.1-19.2c-1.1-4.7-2.3-9.3-3.6-13.7
			c3.1-2,6.4-4.4,9.7-7.2c14.7-13,21.1-29,23.9-39c-6,2.7-19.3,9.9-28.1,25.1c-3.7,6.4-5.6,12.6-6.6,17.4
			c-2.7-8.3-5.4-16.6-8.1-24.9c2.3-0.1,4.1-0.6,5.5-1.3c7.6-3.7,11.1-15.2,9.5-28.8c-4.6,5.5-6.6,10.3-7.6,13.8
			c-1.3,4.4-2.2,10.6-7.3,14.1c-0.3,0.2-0.6,0.4-0.8,0.5c-0.6-1.6-1.2-3.3-1.9-4.9c0.4-0.4,1.1-1,1.8-1.7c0.9-0.9,6.4-6.6,8.4-13.6
			c2.9-10.3-2.7-20.1-3.7-21.7c-2,6.3-2.9,11.6-3.2,15.2c-0.4,4-0.5,8.1-2.1,13.8c-0.7,2.5-1.5,4.5-2.1,5.9c-0.6-1.5-1.1-3-1.7-4.6
			c0.2-1.4,0.5-2.8,0.7-4.1c0.9-4,1.5-9.1,1.3-15c-0.4-10.8-3.8-19.1-6.3-24.2c-1.1,4.5-2,10.4-1.9,17.2c0.1,9.3,2.1,17,3.9,22.2
			c-2.1-3.9-5.1-8.2-9-12.6c-11.4-12.4-25-17.2-32.4-19.2c4,5.4,9.6,11.8,16.9,18.1c7.1,6.1,13.9,10.4,19.6,13.6
			c1.8,1.9,4.1,4.7,6.2,8.6c1.5,2.8,2.1,5,3.1,7.4c1.2,2.8,3,7.4,5.7,15.3c-2.2-3.4-5.6-8-10.7-12.5c-1.3-1.2-4.8-4.2-9.8-7.2
			c-3.7-2.3-9.2-5.1-16.4-7.2c7.6,12.7,14.1,18.1,18.8,20.6c1,0.6,4.8,2.5,10.5,5.7c3.8,2.1,6.8,3.8,8.8,5c1.2,4.6,2.5,9.3,3.7,14
			c2.3,9,4.6,17.9,6.7,26.8c-1.6-4.2-4.3-10.2-8.9-16.6c-4-5.6-13.8-19.3-31.9-24.9c-12.7-3.9-23.9-2.3-30.3-0.7
			c9.5,4.2,19.3,8.3,29.5,12.3c5.8,2.3,11.5,4.5,17.1,6.6c3.2,1.1,6.4,2.2,9.7,3.2c2.4,2.3,5.2,5.4,7.9,9.4
			c3.6,5.5,5.5,10.7,6.6,14.5c0.1,2.2,0.1,4,0.1,5.4s0,5.1-0.3,10.1c-0.1,2.5-0.3,4.2-0.5,6.6c-0.6,6.8-0.9,10.3-1.8,15
			c-1.6,8.9-3.9,14.9-5,18.2c-2.5,7.4-5,18.7-4.5,35.2c0.2,3.3,0.4,8,1,13.4c0.7,7,1.1,8.5,3.5,23.9c1.9,12.6,3,20.6,6.2,21.4
			C163,397.5,164.6,397.8,165,397.1z"/>
	</g>
	<g id="Layer_10">
		<path class="st5" d="M167.6,396.8c-2.2-0.8-0.9-5.5-2.2-11.9c-1.1-5.1-3.3-8.9-5.5-12.7c-1.4-2.3-2.7-4.2-3.7-5.5
			c-2,1.5-5,3.4-9.1,4.5c-4.3,1.2-7.7,1-8.4,0.9c-1.9-0.1-3.2-0.5-5.5-1c-4.6-1.2-5.8-2.2-6.2-2.6c-0.5-0.5-0.9-1.1-1.8-2.5
			c-1-1.5-1.8-2.8-2.1-3.4c-1.5-2.7-1.3-2.9-2.1-3.8c-1.4-1.6-2.7-1.5-2.8-2.2c-0.1-0.9,1.8-1.5,5.3-3.6c3.2-1.9,2.8-2,4.2-2.6
			c3.3-1.5,6.3-1.2,9-0.9c2.3,0.2,5.1,0.5,8.2,2.2c2.3,1.3,3.7,3,4.9,4.2c2.2,2.5,2.1,3.2,4.2,5.7c1.8,2,4.7,4.7,5.3,4.2
			c0.7-0.6-2.4-5.8-4.1-8.4c-1.8-2.7-3.4-4.6-4.8-6.3c-2.8-3.2-4.1-4.8-5.8-5.6c-2.1-1-3.1-0.7-5.4-2.2c-1.7-1.1-1.9-1.8-3.3-2.2
			c-2.2-0.6-4.3,0.5-5,0.9c-2.4,1.3-2.4,2.5-4.8,4.6c-1.9,1.6-3.7,2.4-6.3,3.4c-3.8,1.5-6.9,1.9-7.9,2c-1.7,0.2-4.6,0.5-8.3-0.3
			c-2.8-0.6-5-1-6.8-2.8c-1.8-1.7-2.7-2.5-3.1-3.4c-0.3-0.6-0.7-1.6-1.6-1.8c-0.5-0.1-0.9,0.2-1.1,0c-0.5-0.4,0.3-2.1,0.5-2.4
			c0.9-1.9,1.8-3.8,4.1-5.7c2-1.7,3.9-2.4,7.7-3.7c2.6-0.9,4.1-1.5,6.4-1.7c1.3-0.2,4.2-0.5,7.5,0.4c1.7,0.5,4.1,1.8,8.8,4.5
			c3.4,2,4.1,2.5,6.1,3.3c0.9,0.4,2.8,1.1,4.9,1.8c2.8,0.9,3.4,0.9,4.3,1.6c0.2,0.2,1.1,0.9,2.5,1.6c0.5,0.3,1,0.5,1.1,0.5
			c0.1-0.2-2-2.1-3.8-3.6c-2.1-1.6-2.6-1.8-5-3.6c-1.7-1.2-1.4-1.2-4.4-3.5c-2.9-2.3-4.4-3.5-5.9-4.4c-2.4-1.4-2.2-0.8-4.9-2.4
			c-2.5-1.5-3.6-2.5-5.2-2.3c-0.9,0.1-1,0.5-2.4,1.2c-0.9,0.5-1.9,0.9-6.5,2.1c-3.2,0.8-4.8,1.2-5.4,1.3c-3.7,0.5-6.7-0.2-8.7-0.6
			c-0.6-0.1-3.6-0.8-7.1-2.5c-1.8-0.8-4.7-2.2-7.8-5c-2.3-2.1-3.6-4-4.2-4.8c-1.1-1.6-1.6-2.4-2-3.7c-0.6-1.9-0.2-3.1-1-3.7
			c-1.1-0.8-2.9,0.4-3.2-0.1c-0.3-0.4,0.9-1.8,2.5-3.1c1.9-1.5,4.1-2.6,7.4-3.6c1.6-0.5,5-1.3,9.6-1.4c3.4-0.1,5.9-0.1,9.1,0.8
			c1.4,0.4,6.5,1.9,10.5,6.4c0.7,0.7,0.1,0.2,4.8,7c1.9,2.8,2.8,4.1,4.4,5.7c1.2,1.2,2.4,2.4,4.3,3.6c2.4,1.4,3.2,1,5.6,2.2
			c2.2,1,2.2,1.7,6.7,5.3c3.6,2.9,3.6,2.6,6.3,4.9c3.7,3.2,5.6,5.6,5.8,5.4s-2.2-2.9-4.8-7.2c-2.2-3.8-1.7-4.1-5.2-11
			c-2.2-4.2-3.2-5.9-4.4-7.4c-0.9-1.1-1.3-1.5-2.8-3.4c-0.9-1.1-2.3-2.9-3.8-5.1c-1.8-2.8-3.4-5.2-4.4-8.6c-0.2-0.6-0.9-2.9-1.1-6
			c-0.2-2.4-0.6-8.4,2.8-14.1c1.7-3,2.1-1.8,5.9-7c0.7-1,1.7-2.4,2.6-2.2c0.7,0.2,1,1.4,1.3,2.5c0,0,0.9,3.6,3.5,9.6
			c1.5,3.5,1.9,2.6,2.7,5c1.5,4.6,0,9.1-1.6,14c-0.9,2.8-1.4,4.2-2.4,5.5c-0.8,1-1.8,2-2.4,3.8c-0.4,1-0.5,1.9-0.5,2.5
			c0.6,1,1.4,2.6,2.6,4.5c2.6,4.3,3.2,4.6,4.6,7.2c1.4,2.8,1.1,3.1,3,7.2c1.2,2.6,2.2,4.4,3.1,6c2.8,5,4.5,8.1,7.6,11.6
			c1,1.1,1.8,1.9,3.8,4c2.6,2.9,3.3,4,3.9,5c1.1,1.8,1.5,3.2,1.7,3.2c0.2-0.1-0.7-2.3-1.1-5.5c-0.4-2.8,0.1-3.2-0.1-8
			c-0.1-2.6-0.1-3.9-0.4-5c-0.6-2.3-1.4-3.3-1.8-5.9c0-0.3-0.2-1.4-0.1-2.9c0.1-2.6,0.9-4.6,1.8-6.6c2.4-5.2,3.6-7.9,6.5-10.4
			c1.5-1.2,3.9-2.1,8.7-4c0,0,1.6-0.6,5.1-0.7c0.4,0,1.1,0,1.4,0.4c0.5,0.6-0.2,1.5-0.4,2.7c-0.3,1.8,0.6,2.8,1.1,4.5
			c0.4,1.4,0.2,3.4-0.3,7.3s-0.7,5.8-1.3,7.8c-0.8,2.9-1.6,6-4.1,9.1c-0.7,0.9-5.5,7-9.6,5.8c-2.8-0.8-3.8-4.7-4.8-4.4
			c-0.3,0.1-0.6,0.6-0.2,4.9c0.3,3,0.7,5.1,1.1,7.4c1.1,6,1.1,6.1,1.5,8.2c0.6,3.2,0.9,4.9,1.4,6.4c0.8,2.7,1.1,3.2,2.1,6.1
			c0.6,1.8,0.6,2,2.3,9c1.5,6.2,2,8.2,1,9C169,396.9,168.2,397,167.6,396.8z"/>
	</g>
</g>
<g id="smallplants">
	<path class="st5" d="M769,391c1.2-1.2-1.2-4-2.3-8.6c-0.9-3.7-0.6-7-0.3-10.2c0.2-2,0.5-3.6,0.7-4.9c1.8,0.4,4.4,0.6,7.5,0.1
		c3.2-0.6,5.5-1.8,5.9-2.1c1.2-0.7,2-1.3,3.4-2.5c2.7-2.3,3.2-3.3,3.3-3.7c0.2-0.5,0.2-1.1,0.4-2.3c0.2-1.3,0.3-2.4,0.3-3
		c0.1-2.2-0.1-2.4,0.2-3.2c0.5-1.5,1.3-1.8,1.1-2.4c-0.3-0.6-1.7-0.5-4.7-0.7c-2.8-0.2-2.5-0.5-3.7-0.4c-2.6,0.1-4.6,1.2-6.3,2.2
		c-1.5,0.9-3.3,1.9-4.7,4.1c-1.1,1.6-1.6,3.2-1.9,4.4c-0.7,2.3-0.3,2.8-1,5.1c-0.6,1.9-1.7,4.6-2.2,4.5c-0.7-0.1-0.3-4.7,0-6.9
		c0.3-2.4,0.8-4.1,1.2-5.7c0.8-3,1.2-4.5,2.1-5.6c1.1-1.4,1.9-1.4,2.9-3.2c0.8-1.3,0.7-1.8,1.5-2.5c1.3-1.1,3-1,3.7-1
		c2,0.1,2.4,1,4.7,1.6c1.8,0.5,3.2,0.4,5.3,0.2c3-0.2,5.2-1,5.9-1.2c1.2-0.4,3.2-1.2,5.5-2.8c1.7-1.3,3-2.3,3.7-4s1-2.6,1-3.2
		c0-0.5,0-1.3,0.5-1.7c0.3-0.2,0.7-0.1,0.8-0.4c0.2-0.4-0.9-1.3-1.1-1.5c-1.2-1-2.4-2-4.6-2.5c-1.9-0.5-3.4-0.3-6.3,0
		c-2,0.2-3.2,0.4-4.8,0.9c-1,0.3-2.9,1-4.9,2.7c-1,0.9-2.2,2.5-4.5,5.9c-1.6,2.4-1.9,3-3,4.1c-0.5,0.5-1.5,1.6-2.7,2.8
		c-1.6,1.5-2,1.7-2.3,2.5c-0.1,0.2-0.5,1-1.2,1.9c-0.2,0.4-0.5,0.7-0.6,0.6c-0.2-0.1,0.7-2,1.4-3.6c0.8-1.8,1.1-2,2.2-4
		c0.7-1.4,0.6-1.2,1.8-3.7s1.8-3.8,2.5-4.8c1.2-1.7,1.2-1.3,2.5-3.1c1.2-1.8,1.6-2.8,2.7-3.2c0.6-0.2,0.8,0,2,0c0.7,0,1.5,0,5-0.7
		c2.4-0.5,3.6-0.7,4-0.9c2.6-0.9,4.4-2.2,5.6-3.2c0.4-0.3,2.1-1.7,4-3.9c0.9-1.1,2.4-3,3.6-5.9c0.9-2.1,1.2-3.8,1.3-4.5
		c0.2-1.4,0.3-2.1,0.2-3.1c-0.2-1.5-0.9-2.1-0.5-2.8c0.5-0.9,2-0.6,2.1-1.1c0-0.4-1.2-0.9-2.6-1.3c-1.7-0.4-3.5-0.5-6.1,0
		c-1.2,0.2-3.7,0.7-6.8,2.1c-2.3,1-4,1.8-5.8,3.4c-0.8,0.7-3.7,3.4-5,7.6c-0.2,0.7,0,0.1-0.9,6.2c-0.4,2.4-0.6,3.6-1.2,5.2
		c-0.4,1.1-0.8,2.4-1.8,3.8c-1.2,1.7-1.8,1.7-3.1,3.2c-1.2,1.4-0.9,1.8-2.8,5.7c-1.5,3.1-1.6,2.9-2.7,5.2c-1.5,3.3-2,5.5-2.2,5.5
		s0.6-2.6,0.9-6.3c0.3-3.2-0.2-3.3,0-9c0.1-3.5,0.3-5,0.6-6.4c0.2-1,0.4-1.5,0.8-3.1c0.2-1,0.6-2.7,0.9-4.6c0.3-2.4,0.6-4.5,0.2-7.2
		c-0.1-0.5-0.3-2.2-1.2-4.4c-0.7-1.6-2.3-5.8-6.3-8.6c-2.1-1.5-1.9-0.5-6.2-2.8c-0.8-0.4-1.9-1-2.4-0.6c-0.4,0.3-0.2,1.2-0.1,2.1
		c0,0,0.5,2.7,0.7,7.5c0.1,2.8-0.4,2.4-0.2,4.1c0.5,3.6,2.9,6.1,5.5,8.9c1.5,1.6,2.3,2.4,3.3,2.9c0.8,0.4,1.8,0.8,2.8,1.8
		c0.5,0.6,0.9,1.1,1.1,1.5c0,0.9-0.1,2.2-0.3,3.8c-0.4,3.7-0.7,4.1-0.7,6.3c-0.1,2.3,0.2,2.4,0.3,5.8c0,2.1,0,3.6-0.1,5
		c-0.2,4.2-0.4,6.9-1.4,10.1c-0.3,1.1-0.6,1.8-1.2,3.9c-0.8,2.7-0.9,3.7-1,4.5c-0.1,1.6,0,2.6-0.1,2.6c-0.2,0-0.3-1.8-1-4
		c-0.7-2-1.1-2.1-2.5-5.4c-0.8-1.8-1.2-2.7-1.3-3.4c-0.3-1.8-0.1-2.6-0.7-4.5c-0.1-0.2-0.3-1-0.8-2c-0.9-1.7-2.1-2.8-3.3-3.9
		c-3.2-2.8-4.9-4.1-7.7-4.9c-1.4-0.4-3.3-0.2-7.1,0.1c0,0-1.3,0.1-3.7,1.2c-0.3,0.1-0.7,0.3-0.8,0.7c-0.1,0.5,0.6,1,1.1,1.7
		c0.8,1.1,0.5,2,0.7,3.4c0.2,1.1,1,2.3,2.5,4.8c1.5,2.4,2.3,3.6,3.3,4.8c1.4,1.7,3,3.5,5.6,4.8c0.7,0.4,5.9,2.9,8.3,0.8
		c1.6-1.4,1.1-4.4,1.8-4.4c0.2,0,0.6,0.2,1.7,3.2c0.8,2.1,1.2,3.6,1.6,5.3c1.2,4.4,1.2,4.4,1.6,6c0.6,2.4,0.9,3.5,1.1,4.7
		c0.4,2.1,0.3,2.5,0.6,4.8c0.2,1.4,0.3,1.5,1.3,6.7c1,4.6,1.2,6.1,2.2,6.3C768.1,391.5,768.7,391.3,769,391z"/>
	<path class="st4" d="M782.9,391.2c0.8-0.7-0.2-2.9-0.5-3.5c-1.7-3.5-0.7-11.9,0.4-26.1c1.3-15.7,0.7-13.1,1.2-17
		c0.9-6.8,4-24.5,14.1-42.7c2.3-4.2,4-6.5,7.3-12.9c3.9-7.5,6-11.7,8-17.8c1.6-4.8,1.7-6.7,3.8-10.5c0.4-0.8,2.5-4.7,6.3-8.9
		c1.2-1.3,2.9-3.2,5.6-5.3c2.6-2,5.1-3.4,7-4.2c2.7,0.2,6.9,0.5,12,0.3c16.5-0.5,26.7-5,47.1-11.3c6.5-2,16.4-4.9,28.7-8.1
		c-3.9-1-32.9-8-56.2-1.7c-3.8,1-17.5,4.7-24,11.2c-0.8,0.7-3.4,3.5-7.4,6.7c-3,2.4-4.7,3.4-6.5,4.7c-2.9,2.1-6.8,5.6-10.7,11.4
		c0.9-3.4,1.8-6.8,2.7-10.1c0.4-6.3,0.6-12.8,0.7-19.6c0.1-4.9,0-9.6-0.1-14.1c3.5-1.1,7.3-2.6,11.2-4.6c17.5-9,27.5-23,32.7-31.9
		c-6.5,1.2-21.1,4.9-33.3,17.5c-5.2,5.3-8.5,10.8-10.6,15.2c-0.6-8.7-1.2-17.4-1.8-26.2c2.3,0.5,4.2,0.4,5.7,0.1
		c8.2-1.7,14.5-12,16.2-25.6c-5.7,4.2-8.9,8.4-10.8,11.5c-2.4,4-4.7,9.8-10.5,11.9c-0.4,0.1-0.7,0.2-0.9,0.3
		c-0.2-1.7-0.4-3.5-0.6-5.2c0.5-0.3,1.3-0.7,2.2-1.2c1.1-0.6,7.8-4.8,11.4-11.1c5.4-9.3,2.3-20.1,1.7-21.9c-3.5,5.6-5.6,10.5-6.9,14
		c-1.4,3.8-2.5,7.7-5.5,12.9c-1.3,2.3-2.5,4-3.4,5.2c-0.2-1.6-0.4-3.2-0.5-4.8c0.6-1.3,1.2-2.6,1.7-3.8c1.8-3.6,3.7-8.4,4.9-14.2
		c2.2-10.5,1-19.5-0.2-25c-2.1,4.1-4.5,9.6-6,16.2c-2.2,9.1-2.1,17-1.6,22.5c-1.1-4.3-2.9-9.2-5.7-14.4c-8-14.8-20-22.8-26.7-26.6
		c2.6,6.2,6.4,13.7,12,21.7c5.3,7.6,10.9,13.5,15.6,18c1.2,2.2,2.9,5.6,3.9,9.8c0.8,3.1,0.8,5.4,1.2,7.9c0.4,3,1.1,7.9,1.8,16.3
		c-1.3-3.9-3.5-9.1-7.3-14.8c-1-1.5-3.6-5.2-7.7-9.4c-3.1-3.1-7.7-7.2-14.1-11c4.3,14.2,9.2,21,13.2,24.6c0.8,0.8,4,3.6,8.8,8.1
		c3.1,2.9,5.7,5.4,7.3,7c0.1,4.8,0.1,9.6,0.1,14.5c0,9.3,0,18.5,0,27.6c-0.5-4.5-1.7-11-4.6-18.3c-2.5-6.4-8.7-22.1-24.9-31.9
		c-11.3-6.9-22.6-8.1-29.2-8.1c8.2,6.4,16.7,12.8,25.6,19.2c5,3.6,10,7.1,15,10.6c2.9,1.8,5.7,3.7,8.6,5.5c1.8,2.8,3.8,6.5,5.3,11.1
		c2.1,6.2,2.7,11.7,2.8,15.7c-0.5,2.1-0.9,3.9-1.2,5.2s-1.3,4.9-2.8,9.7c-0.8,2.4-1.3,4-2.1,6.3c-2.3,6.5-3.4,9.8-5.4,14.1
		c-3.7,8.2-7.4,13.5-9.3,16.4c-4.2,6.6-9.4,16.9-13,33.1c-0.7,3.3-1.5,7.8-2.3,13.3c-1,6.9-1,8.5-2.5,24
		c-1.2,12.7-2.1,20.7,0.8,22.2C780.8,391,782.3,391.8,782.9,391.2z"/>
	<path class="st1" d="M785.8,229.7c-1-8.5-1.8-17-3.1-25.4c-2-12.2-3.2-15.1-1.6-20.1c0.5-1.5,1.6-4.4,2.8-9.1
		c0.3-1.1,1-4.2,1.6-8.1c0.4-2.4,0.6-4.4,0.7-5.7c0.1-0.9,0.2-1.8,0.2-2.4c0.4,0.4,1.2,0.8,2.1,1.1c2.3,0.6,4.2-0.9,5.8-2
		c1.8-1.2,2.2-4.4,1.4-6.8c-1.1-3.2-4.8-5.3-7.9-4.5c-3.1,0.8-5.1,3.8-5,6.7c0,2.7,1.8,4.5,2.2,4.9c0,1.1,0,2.7-0.2,4.5
		c-0.4,4.6-1.1,8.1-1.7,10.6c-0.6,2.6-1.1,4.7-2.1,7.4c-0.6,1.7-1.3,3.1-1.8,4c-0.5-3.3-0.7-6.3-0.7-8.6c0-1.5,0.1-5.7,1.2-11.2
		c0.6-2.9,1.2-5,2.3-8.1c0.3-1,0.8-2.4,1.5-4.2c0.5-1.5,2.2-5.9,5.2-11.9c2.1-4.2,3-5.4,3.5-6.1c2.3-3,4.2-4.1,4.8-4.4
		c1.8-1,3.5-1.5,4.6-1.7c0.2,0.5,0.9,2.3,2.9,3.3c1.7,0.9,3.4,0.6,4,0.4c1.8-0.4,3-1.3,3.5-1.8c0.6-0.5,2.6-2.4,2.4-5.3
		c0-0.3-0.2-2.5-2-4.1c-2-1.8-4.9-1.6-6.8-0.8c-2.5,1-4.2,3.5-4.3,6.4c-1.4,0.5-3.1,1.2-4.8,2.3c-2.3,1.5-3.7,3.1-4.5,4
		c-1.5,1.8-2.5,3.4-3,4.4c-2.6,4.6-4.6,9.4-7.2,15.6c-2.5,6.1-2.9,7.6-3.3,9.2c-0.9,3.2-1.3,6-1.5,7.9c-0.1-2.7-0.1-6.3,0.1-10.4
		c0.1-1.4,0.2-4.4,0.6-8c0.8-6.6,1.3-7.4,1.9-12.6c0.3-2.5,1-8.1,2.1-16.1c0.3-2.2,0.8-5.7,3.4-7.4c0.9-0.6,1.7-0.8,2.3-0.9
		c0.7,0.3,1.9,0.9,3.5,0.9c0.9,0,2.3,0.1,3.7-0.8c1.3-0.9,2.5-2.5,2.5-4.4c0-2-1.1-3.3-1.4-3.7c-1.4-1.5-3.6-2.2-5.4-1.7
		c-2.6,0.6-5,2.8-5,5.5c0,1.4,0.7,2.5,1.1,3c-0.5,0.2-1.2,0.6-1.9,1.2c-1.2,1-1.9,2.2-2.2,2.9c0-2.1-0.1-5.3-0.8-9.1
		c-0.6-3.5-1.2-4-2.8-10.4c-0.7-2.7-1.6-6-2.3-10.3c-0.5-3-0.8-5.4-1-7.2c0.6-0.1,1.7-0.2,2.8-0.9c1.8-1.1,3.3-3.3,3-5.8
		c-0.4-2.9-2.8-4.3-3.1-4.4c-2.4-1.3-5.6-0.9-7.6,1.1c-2.3,2.3-1.8,5.4-1.7,6s0.6,3.5,2.8,4.1c0.8,0.2,1.6,0.1,2-0.1
		c0.1,2.9,0.4,5.3,0.7,7.1c0.3,1.5,0.6,2.7,2.8,10.4c1.2,4.2,1.5,4.9,2,6.7c0.9,3.5,1.4,5.3,1.7,7.7c0.1,0.6,0.4,3.1,0.2,7.1
		c-0.2,4.9-0.9,7.2-2.2,15.1c-0.3,1.9-0.8,4.7-1.3,8.3c-1-1.8-2.2-4.4-3.6-7.6c-1.2-2.8-1.8-4.2-2.3-5.8c-1-3.3-1-4.7-2.3-10.9
		c-0.3-1.7-0.7-3-0.9-3.9c0.6-0.2,2.3-0.6,3.5-2.2c1.6-2.1,1.1-4.7,0.9-5.8c-0.3-1.3-0.7-3.4-2.4-4.3c-2.5-1.3-5.7,1.1-6.1,1.4
		c-0.5,0.3-3.5,2.6-3,5.8c0.4,2.7,3,4.3,3.6,4.6c0.6,0.4,1.2,0.6,1.5,0.7c0.4,1,0.9,2.5,1.5,4.5c0.9,3.4,0.8,4.4,1.6,7.9
		c0.6,2.6,1.1,5,2.5,7.9c0.8,1.9,1.4,2.6,3,6.2c0.7,1.4,1.3,2.9,1.5,4.9c0.1,1.4,0,2.4-0.1,2.9c-0.4,3.2-0.5,6.5-0.7,13.1
		c-0.1,1.9-0.1,5.5,0.3,10c0.4,4,1,7.3,1.6,9.7c-1.3-2.4-3-6.1-4.4-10.9c-0.1-0.4-0.4-1.2-0.8-2.9c-0.6-2.4-2.8-13.1-2.8-13.1
		c-1.7-8.2-2.5-7.6-4-15.4c-0.3-1.4-0.8-4.1-1.8-7.7c-0.6-2.3-1.2-4.1-1.7-5.4c0.5-0.3,1.6-1,2.2-2.3c0.9-2,0.1-3.9-0.3-5
		c-0.5-1.3-1.2-2.9-2.9-3.6c-2.6-1-5.3,1.2-5.7,1.6c-0.3,0.2-3.5,3-2.6,6.6c0.1,0.3,0.8,3.1,3.6,4c2,0.7,3.8-0.2,4.2-0.4
		c0.4,0.7,0.9,1.7,1.4,3.1c1.1,2.9,1.2,4.7,1.7,7.5c0.4,2.5,0.5,1.6,2.5,9.8c0.7,2.8,1.1,4.5,1.7,6.8c1.2,5.1,1.5,7.3,3.4,16
		c0.2,0.9,0.3,1.6,0.4,2c-0.6-0.9-1.5-2.2-2.8-3.6c-1.6-1.8-2.2-1.9-3.6-3.3c-2.2-2.2-3.4-4.4-5-7.4c-0.7-1.2-1.5-2.9-2.3-5
		c0.5-0.3,2.3-1.5,3.1-3.8c0.2-0.6,1.1-3.4-0.5-5.7c-1.6-2.4-4.8-3.3-7.5-2.3c-3,1.1-4,4.2-4.1,6.4c0,0.6-0.1,3.7,2.4,5.4
		c2.3,1.5,4.9,0.7,5.2,0.6c0.3,0.8,0.8,1.8,1.4,3c0.3,0.6,1.5,2.9,3.6,6c1.1,1.7,1.7,2.6,2.7,3.7c2,2.2,2.5,1.9,4.5,4.1
		c1.5,1.7,2.5,3.3,3.4,4.8c0.4,0.6,1,1.6,1.7,3.1c0.6,1.2,2.2,4.5,3.6,8.4c1.2,3.5,2.3,7.7,3.4,16c0.8,6.2,1.1,9.9,1.6,14.8
		c1,10.6,2.1,17.2,2.3,19.6c2.5,21.3-9.6,55.1-12.6,62.6c-7.4,18.2-18,35.2-14.7,52c0.4,2,1.4,6.1,1.2,11.9c-0.2,6-0.6,18-6.8,24.1
		c-0.8,0.8-2.9,2.6-2.5,4.6c0.3,1.5,1.6,3.1,2.7,3c1.3-0.1,2.4-2.4,2.4-5.7c0.1-0.2,0.3-0.7,0.6-1.3c1.2-2.5,2.2-4.3,2.4-4.6
		c1.1-2,3.5-8.8,3.6-17.5c0-0.5,0-0.4-1.2-13.3c-0.7-7.7-0.7-8.4-0.7-9.8c0-1.9,0.3-7.2,2.4-13.7c1.1-3.3,1.4-3,4.9-10.8
		c0.4-0.8,2.6-5.9,5-12c1.9-4.9,3.3-8.9,4.9-13.5c5.8-17.1,8.7-25.7,9.6-31.2c0.5-3.4,1.4-10.5,1-19.6
		C787.1,240.7,786.9,239.4,785.8,229.7z"/>
	<path class="st0" d="M732.8,395.2c2.5-2.2-1.6-20.3-3-31.3c-0.5-4.3-1-10.7-0.5-18.5l0,0c0.7-1.1,0.8-2.2,0.8-2.5
		c0.1-1.1,0.7-6.1,1.5-13c0.2-12,1.6-17.4,3.1-19.8c0.1-0.1,0.6-0.9,1.2-2c2.3-3.8,3.4-5.7,4.1-7.6c1.7-4.7,0.9-9,0.5-10.8
		c-0.5-2.6-1.5-4.7-2.2-6c-3.9,8-4.2,12.8-3.7,15.7c0.2,0.9,0.8,3.5,0.1,6.8c-0.5,2.3-1.3,3.9-1.7,4.7c-1.9,3.8-1.6,6.8-2.5,18.3
		c-0.5,6.4-1.2,13.6-1.4,13.6c-0.1,0-0.1-1.1,0.2-11.4c0.4-12.8,0.5-13.1,0.3-15.3c-0.2-2.9-0.4-5.4-0.5-10.1c0-1.6,0-3.4,0.1-5.4
		c0.1-4.2,0.5-8.9,0.9-12.1c1-7.5,3.8-14.6,6.1-19.5c0.8-1.5,1.7-3.2,2.4-5.2c1.5-4.3,1.9-8.1,1.9-11c-1.8,1.6-4.6,4.4-6.5,8.7
		c-1,2.3-1.6,4.4-1.8,6.1c-0.1,1.6-0.4,4-0.7,6.8c-1.5,14.3-2.5,14.8-3,22.3c-0.4,7.9-0.2,17.4,0.2,21.5c0.1,0.8,0.4,3.8,0.2,7.8
		c0,0.8-0.1,1.5-0.1,1.9c-0.1-3.5-0.5-6.8-0.9-9.8c-0.8-4.8-1.6-6.6-1.8-10c-0.2-2.5,0-6.2,1.5-10.8c0.2-1.5,0.3-3.4,0-5.5
		c-0.8-5.6-3.7-9.5-5.3-11.2c-1,1.9-2.9,6-2.6,11.3c0.2,2.8,0.9,5.1,1.6,6.7c1.1,2.2,2.6,5.5,3.7,9.8c0.4,1.6,0.7,3.1,1.2,6.1
		c0.8,4,1.4,7.1,1.7,11c0.1,1.5,0.1,4,0.1,8.8c0,3.8,0,5.7-0.1,9.5c-0.2,10.7-0.3,19.3,1.9,29c0,0,3.2,13.7,1.9,17.9
		c-0.3,0.9-0.4,1.6-0.5,2.9c-0.2,2,0.1,2.3,0.2,2.4C731.9,395.9,732.6,395.3,732.8,395.2z"/>
	<path class="st2" d="M716.7,394.7c1.7-1.8-1.7-5.8-3.3-12.6c-1.3-5.4-0.9-10.2-0.5-14.9c0.2-2.9,0.7-5.3,1-7.1
		c2.6,0.5,6.4,0.9,10.9,0.1c4.7-0.8,7.9-2.6,8.6-3c1.8-1,2.9-1.9,4.9-3.6c4-3.3,4.6-4.8,4.8-5.4c0.2-0.7,0.4-1.5,0.6-3.3
		c0.3-1.9,0.4-3.5,0.5-4.3c0.2-3.3-0.1-3.4,0.3-4.7c0.7-2.2,2-2.7,1.7-3.5c-0.4-0.9-2.4-0.7-6.8-1c-4-0.3-3.6-0.6-5.3-0.6
		c-3.8,0.1-6.7,1.8-9.1,3.3c-2.1,1.3-4.8,2.8-6.9,6c-1.6,2.4-2.3,4.6-2.8,6.4c-1,3.4-0.5,4.1-1.5,7.5c-0.8,2.8-2.4,6.7-3.2,6.5
		c-1-0.2-0.4-6.8,0.1-10.1c0.5-3.5,1.1-6,1.8-8.3c1.2-4.4,1.8-6.6,3.1-8.2c1.6-2,2.7-2.1,4.3-4.6c1.2-1.9,1-2.6,2.2-3.6
		c1.8-1.6,4.4-1.5,5.3-1.5c3,0.1,3.5,1.4,6.9,2.3c2.7,0.7,4.7,0.5,7.7,0.3c4.3-0.3,7.6-1.4,8.6-1.7c1.7-0.6,4.7-1.7,7.9-4.1
		c2.5-1.9,4.4-3.3,5.3-5.9c1-2.5,1.4-3.7,1.5-4.7c0-0.7,0-1.9,0.7-2.5c0.5-0.3,1-0.2,1.1-0.5c0.3-0.6-1.3-1.9-1.6-2.2
		c-1.7-1.4-3.5-2.9-6.6-3.7c-2.7-0.7-4.9-0.5-9.2,0c-2.9,0.3-4.7,0.5-7,1.3c-1.4,0.5-4.3,1.5-7.1,3.9c-1.5,1.2-3.2,3.7-6.5,8.5
		c-2.4,3.5-2.8,4.3-4.4,6c-0.7,0.8-2.2,2.4-4,4c-2.3,2.2-2.8,2.5-3.4,3.6c-0.1,0.3-0.7,1.4-1.7,2.8c-0.4,0.5-0.7,1-0.8,0.9
		c-0.2-0.1,0.9-2.9,2.1-5.2c1.2-2.5,1.7-2.9,3.2-5.9c1-2,0.8-1.8,2.6-5.4s2.7-5.5,3.7-7c1.7-2.5,1.8-1.8,3.6-4.6
		c1.8-2.6,2.3-4.1,4-4.7c0.9-0.3,1.2,0,2.9,0.1c1.1,0.1,2.2,0,7.3-1c3.5-0.7,5.2-1,5.9-1.3c3.8-1.3,6.5-3.3,8.2-4.6
		c0.5-0.4,3.1-2.4,5.8-5.7c1.3-1.6,3.5-4.4,5.3-8.5c1.3-3.1,1.7-5.5,1.8-6.5c0.3-2.1,0.5-3.1,0.2-4.5c-0.4-2.1-1.3-3-0.7-4
		c0.7-1.3,3-1,3-1.6c0.1-0.5-1.7-1.4-3.8-1.8c-2.5-0.6-5.2-0.7-8.9,0c-1.8,0.3-5.4,1.1-10,3.1c-3.3,1.5-5.8,2.6-8.5,5
		c-1.2,1-5.4,4.9-7.2,11.1c-0.3,1,0,0.2-1.4,9c-0.6,3.6-0.9,5.3-1.7,7.6c-0.6,1.7-1.2,3.5-2.6,5.5c-1.7,2.5-2.6,2.5-4.5,4.7
		c-1.7,2.1-1.4,2.7-4.1,8.3c-2.1,4.5-2.4,4.2-3.9,7.6c-2.1,4.8-2.9,8.1-3.2,8s0.8-3.8,1.3-9.2c0.4-4.7-0.2-4.8,0-13.1
		c0.1-5.1,0.4-7.2,0.9-9.3c0.3-1.5,0.6-2.1,1.1-4.5c0.3-1.5,0.9-3.9,1.3-6.7c0.5-3.5,0.9-6.6,0.3-10.4c-0.1-0.7-0.5-3.2-1.7-6.4
		c-1-2.4-3.3-8.4-9.2-12.5c-3.1-2.1-2.8-0.8-9-4.1c-1.2-0.6-2.8-1.5-3.5-0.9c-0.6,0.5-0.3,1.8-0.1,3c0,0,0.8,4,1.1,10.9
		c0.2,4.1-0.6,3.5-0.3,6c0.7,5.2,4.2,8.9,8,12.9c2.2,2.3,3.3,3.5,4.9,4.3c1.2,0.6,2.6,1.1,4,2.5c0.8,0.8,1.3,1.6,1.6,2.2
		c-0.1,1.3-0.2,3.2-0.4,5.5c-0.5,5.4-1,6-1.1,9.1c-0.1,3.4,0.4,3.5,0.5,8.4c0.1,3-0.1,5.3-0.2,7.3c-0.4,6.1-0.6,10-2,14.8
		c-0.5,1.6-0.9,2.7-1.8,5.7c-1.2,4-1.4,5.4-1.5,6.6c-0.2,2.3,0,3.8-0.2,3.9c-0.2,0-0.4-2.6-1.5-5.9c-1-2.9-1.5-3-3.6-7.8
		c-1.1-2.6-1.7-3.9-1.9-5c-0.5-2.5-0.1-3.8-1-6.6c-0.1-0.3-0.5-1.5-1.2-2.8c-1.3-2.5-3-4.1-4.8-5.6c-4.7-4-7.1-6-11.2-7.1
		c-2-0.5-4.8-0.3-10.3,0.2c0,0-1.9,0.1-5.3,1.7c-0.4,0.2-1,0.5-1.2,1c-0.2,0.8,0.9,1.4,1.6,2.4c1.2,1.6,0.8,3,1,4.9
		c0.2,1.5,1.4,3.4,3.7,7c2.2,3.5,3.4,5.3,4.9,7c2.1,2.4,4.4,5.1,8.2,7c1.1,0.5,8.6,4.2,12,1.2c2.4-2.1,1.5-6.3,2.6-6.4
		c0.3,0,0.9,0.3,2.4,4.6c1.1,3,1.7,5.3,2.4,7.7c1.7,6.4,1.8,6.4,2.4,8.7c0.9,3.4,1.3,5.2,1.6,6.9c0.5,3,0.4,3.7,0.8,6.9
		c0.3,2,0.4,2.2,2,9.8c1.4,6.7,1.8,8.9,3.2,9.2C715.5,395.4,716.3,395.2,716.7,394.7z"/>
	<path class="st4" d="M790.6,394.7c-0.6-0.5,0.1-2.3,0.3-2.7c1.3-2.7,0.6-9.2-0.3-20.3c-1-12.2-0.5-10.2-1-13.2
		c-0.7-5.3-3.1-19-11-33.2c-1.8-3.3-3.1-5-5.7-10c-3-5.9-4.7-9.1-6.3-13.9c-1.2-3.8-1.3-5.2-2.9-8.2c-0.3-0.6-1.9-3.6-4.9-6.9
		c-0.9-1-2.3-2.5-4.4-4.1c-2-1.6-4-2.6-5.4-3.3c-2.1,0.2-5.3,0.4-9.3,0.2c-12.8-0.4-20.8-3.9-36.7-8.8c-5.1-1.6-12.7-3.8-22.3-6.3
		c3-0.8,25.6-6.2,43.8-1.3c2.9,0.8,13.6,3.6,18.7,8.7c0.6,0.6,2.6,2.7,5.8,5.2c2.3,1.9,3.6,2.6,5.1,3.7c2.2,1.7,5.3,4.4,8.3,8.9
		c-0.7-2.6-1.4-5.2-2.1-7.9c-0.3-4.9-0.5-10-0.6-15.2c0-3.8,0-7.4,0.1-11c-2.8-0.9-5.7-2.1-8.7-3.6c-13.6-7-21.4-17.9-25.5-24.9
		c5,0.9,16.5,3.8,25.9,13.6c4,4.1,6.6,8.4,8.3,11.9c0.5-6.8,0.9-13.6,1.4-20.4c-1.8,0.4-3.2,0.3-4.4,0.1
		c-6.4-1.4-11.3-9.3-12.6-19.9c4.5,3.2,7,6.5,8.4,9c1.8,3.1,3.7,7.6,8.2,9.3c0.3,0.1,0.5,0.2,0.7,0.2c0.2-1.4,0.3-2.7,0.5-4.1
		c-0.4-0.2-1-0.5-1.7-0.9c-0.8-0.5-6.1-3.7-8.9-8.6c-4.2-7.2-1.8-15.7-1.3-17.1c2.7,4.4,4.3,8.2,5.3,10.9c1.1,2.9,1.9,6,4.2,10
		c1,1.8,2,3.1,2.7,4c0.1-1.2,0.3-2.5,0.4-3.8c-0.5-1-0.9-2-1.3-3c-1.4-2.8-2.9-6.5-3.8-11c-1.7-8.2-0.8-15.1,0.1-19.4
		c1.7,3.2,3.5,7.4,4.7,12.6c1.7,7.1,1.6,13.2,1.3,17.5c0.9-3.3,2.2-7.2,4.4-11.2c6.3-11.5,15.6-17.8,20.8-20.7
		c-2,4.8-5,10.7-9.3,16.9c-4.2,5.9-8.5,10.5-12.2,14c-1,1.7-2.2,4.3-3,7.6c-0.6,2.4-0.6,4.2-0.9,6.2c-0.3,2.3-0.8,6.2-1.4,12.7
		c1-3,2.7-7.1,5.7-11.5c0.8-1.1,2.8-4.1,6-7.3c2.4-2.4,6-5.6,11-8.5c-3.3,11-7.2,16.3-10.2,19.1c-0.7,0.6-3.1,2.8-6.9,6.3
		c-2.5,2.3-4.4,4.2-5.7,5.4c0,3.7-0.1,7.5-0.1,11.3c0,7.2,0,14.4,0,21.5c0.4-3.5,1.3-8.5,3.5-14.2c2-5,6.7-17.2,19.4-24.9
		c8.8-5.4,17.6-6.3,22.7-6.3c-6.4,5-13,9.9-19.9,14.9c-3.9,2.8-7.8,5.6-11.6,8.2c-2.2,1.4-4.5,2.9-6.7,4.3c-1.4,2.2-2.9,5-4.1,8.6
		c-1.7,4.8-2.1,9.1-2.2,12.2c0.4,1.6,0.7,3,1,4.1c0.3,1,1,3.8,2.2,7.5c0.6,1.8,1,3.1,1.7,4.9c1.8,5,2.7,7.6,4.2,11
		c2.9,6.4,5.8,10.5,7.2,12.8c3.3,5.1,7.3,13.2,10.1,25.7c0.5,2.5,1.2,6.1,1.8,10.3c0.8,5.4,0.8,6.6,1.9,18.7
		c0.9,9.9,1.6,16.1-0.7,17.3C792.2,394.5,791.1,395.1,790.6,394.7z"/>
	<path class="st1" d="M763.5,272.7c-2.7-5.6-5.1-11.4-8-16.9c-4.1-8-5.7-9.8-5.7-13.6c0-1.2,0.1-3.4-0.1-6.9c-0.1-0.9-0.2-3.1-0.7-6
		c-0.3-1.7-0.6-3.2-0.8-4.1c-0.2-0.7-0.3-1.2-0.4-1.7c0.4,0.1,1,0.3,1.7,0.3c1.7-0.1,2.7-1.6,3.6-2.7c1-1.2,0.5-3.6-0.6-5
		c-1.5-2-4.5-2.6-6.5-1.3c-2,1.2-2.7,3.8-2,5.8c0.6,1.9,2.3,2.7,2.7,2.9c0.2,0.8,0.6,1.9,0.9,3.2c0.8,3.3,1.1,5.9,1.2,7.7
		c0.2,1.9,0.3,3.5,0.2,5.6c-0.1,1.3-0.2,2.4-0.3,3.2c-1.2-2.2-1.9-4.2-2.5-5.8c-0.3-1-1.3-4-1.7-8c-0.3-2.2-0.3-3.7-0.3-6.1
		c0-0.8,0-1.9,0.1-3.3c0-1.2,0.2-4.6,0.9-9.5c0.5-3.4,0.8-4.4,1-5.1c0.9-2.6,2-3.8,2.3-4.2c1-1.1,2.1-1.8,2.8-2.2
		c0.2,0.3,1.2,1.4,2.8,1.6c1.4,0.2,2.5-0.4,2.9-0.6c1.1-0.7,1.8-1.6,2-2.1c0.3-0.5,1.2-2.3,0.5-4.2c-0.1-0.2-0.7-1.7-2.3-2.4
		c-1.8-0.8-3.8,0-4.9,1c-1.5,1.3-2.1,3.4-1.5,5.4c-0.9,0.6-1.9,1.5-2.8,2.7c-1.2,1.6-1.8,3-2.2,3.8c-0.7,1.6-0.9,2.9-1.1,3.7
		c-0.8,3.8-1.1,7.6-1.4,12.5c-0.3,4.8-0.3,5.9-0.2,7.1c0.2,2.4,0.5,4.5,0.8,5.9c-0.7-1.9-1.5-4.3-2.3-7.2c-0.3-1-0.9-3.1-1.4-5.7
		c-1-4.8-0.8-5.4-1.5-9.2c-0.3-1.8-1.2-5.9-2.2-11.6c-0.3-1.6-0.7-4.1,0.7-5.9c0.5-0.6,1-0.9,1.4-1.1c0.5,0.1,1.5,0.2,2.6-0.2
		c0.6-0.2,1.6-0.5,2.4-1.4c0.7-0.9,1.1-2.3,0.7-3.6c-0.5-1.4-1.6-2.1-1.8-2.2c-1.3-0.7-3-0.7-4.2,0.1c-1.7,1-2.8,3.1-2.2,5
		c0.3,1,1,1.6,1.5,1.9c-0.3,0.3-0.7,0.7-1.1,1.2c-0.6,1-0.8,2-0.9,2.5c-0.5-1.5-1.2-3.7-2.6-6.1c-1.2-2.3-1.7-2.5-4.3-6.6
		c-1.1-1.7-2.5-3.8-4-6.6c-1-1.9-1.8-3.6-2.4-4.8c0.4-0.2,1.1-0.5,1.7-1.2c1-1.1,1.5-3,0.7-4.7c-0.9-1.9-3-2.3-3.2-2.4
		c-2-0.4-4.1,0.7-5,2.5c-1.1,2.1,0,4.1,0.2,4.6c0.2,0.4,1.2,2.3,2.9,2.2c0.6,0,1.1-0.3,1.4-0.5c0.7,2,1.5,3.6,2.1,4.8
		c0.5,1,1,1.8,4.3,6.6c1.8,2.7,2.1,3.1,2.9,4.2c1.4,2.2,2.2,3.4,3,5c0.2,0.4,1,2.1,1.8,4.9c1,3.4,1,5.2,1.9,11c0.2,1.4,0.5,3.4,1,6
		c-1.1-1.1-2.6-2.6-4.3-4.4c-1.5-1.7-2.2-2.5-3-3.5c-1.5-2-1.8-3-4.1-7c-0.6-1.1-1.2-1.9-1.5-2.5c0.4-0.2,1.5-1,1.9-2.3
		c0.6-1.9-0.3-3.5-0.7-4.2c-0.5-0.8-1.3-2.2-2.7-2.4c-2.1-0.3-3.7,2.1-3.9,2.4c-0.2,0.4-1.8,2.6-0.8,4.7c0.9,1.8,3,2.3,3.5,2.4
		c0.5,0.1,0.9,0.1,1.2,0.1c0.5,0.6,1.2,1.5,2,2.8c1.4,2.1,1.6,2.9,2.9,5.1c1,1.7,1.9,3.2,3.5,5c1,1.1,1.6,1.5,3.5,3.6
		c0.8,0.8,1.5,1.7,2.1,3c0.4,0.9,0.5,1.7,0.6,2c0.4,2.3,1.1,4.6,2.5,9.3c0.4,1.4,1.2,3.8,2.5,6.9c1.2,2.7,2.4,4.8,3.3,6.4
		c-1.4-1.4-3.5-3.6-5.5-6.6c-0.2-0.2-0.5-0.8-1.2-1.9c-1-1.5-4.9-8.5-4.9-8.5c-3-5.3-3.5-4.7-6.3-9.8c-0.5-0.9-1.5-2.7-3-5
		c-1-1.4-1.8-2.6-2.4-3.4c0.3-0.3,0.9-1.1,1-2.1c0.2-1.6-0.8-2.8-1.4-3.4c-0.7-0.8-1.5-1.8-2.8-1.8c-2-0.1-3.4,2.1-3.6,2.4
		c-0.2,0.2-1.7,2.9-0.3,5.2c0.1,0.2,1.3,2,3.4,2c1.6,0,2.6-1,2.8-1.2c0.4,0.4,1,1,1.7,1.8c1.4,1.7,2,3,2.9,4.8c0.9,1.6,0.7,1,4,6.2
		c1.1,1.8,1.8,2.9,2.7,4.4c2,3.3,2.7,4.7,6,10.4c0.3,0.6,0.6,1,0.8,1.3c-0.6-0.5-1.5-1.2-2.8-1.9c-1.5-0.9-2-0.9-3.2-1.5
		c-2.1-1-3.4-2.3-5.2-4c-0.7-0.7-1.7-1.7-2.8-3c0.3-0.4,1.3-1.6,1.3-3.3c0-0.5,0-2.6-1.7-3.9c-1.7-1.3-4.1-1.2-5.8,0.1
		c-1.8,1.5-1.8,3.9-1.4,5.4c0.1,0.4,0.8,2.6,2.9,3.2c1.9,0.6,3.5-0.6,3.8-0.8c0.4,0.5,1,1.1,1.7,1.8c0.3,0.4,1.7,1.7,3.8,3.3
		c1.2,0.9,1.8,1.4,2.7,1.9c1.9,1.1,2.2,0.8,4,1.8c1.4,0.8,2.5,1.7,3.5,2.5c0.4,0.4,1,0.9,1.9,1.8c0.7,0.7,2.6,2.6,4.4,5
		c1.6,2.2,3.4,4.8,6,10.3c2,4.1,3.1,6.6,4.5,9.9c3.2,7.1,5.4,11.5,6.1,13.1c6.6,14.2,6,40.4,5.6,46.3c-1,14.3-4.4,28.5,1.7,39.5
		c0.7,1.3,2.4,3.9,3.6,8c1.2,4.2,3.7,12.6,0.8,18.3c-0.4,0.7-1.4,2.5-0.7,3.8c0.5,1,1.8,1.8,2.6,1.4s1.1-2.2,0.4-4.5
		c0-0.2,0.1-0.6,0.1-1c0.3-2,0.5-3.5,0.6-3.7c0.3-1.6,0.4-6.9-1.5-13c-0.1-0.4-0.1-0.3-3.8-9c-2.2-5.2-2.4-5.7-2.7-6.7
		c-0.4-1.4-1.4-5.1-1.4-10c0-2.5,0.3-2.4,0.9-8.6c0.1-0.7,0.5-4.7,0.8-9.5c0.2-3.8,0.3-6.9,0.3-10.5c0.1-13.2,0.2-19.8-0.5-23.9
		c-0.4-2.5-1.4-7.6-3.8-13.9C767,280,766.6,279.1,763.5,272.7z"/>
	<path class="st0" d="M703.1,395.5c-3-1.4-4-20-5.7-30.9c-0.7-4.3-2-10.5-4.6-18l0,0c-0.9-0.9-1.3-1.9-1.5-2.2
		c-0.4-1-2.4-5.7-5-12.1c-3.5-11.5-6.3-16.2-8.5-18.2c-0.1-0.1-0.8-0.7-1.7-1.5c-3.2-3-4.8-4.6-6-6.2c-2.9-4-3.3-8.5-3.4-10.2
		c-0.2-2.7,0.1-4.9,0.5-6.4c6,6.6,7.6,11.1,7.8,14.1c0.1,0.9,0.2,3.6,1.8,6.6c1.1,2.1,2.3,3.4,2.9,4c2.8,3.1,3.4,6,7.4,16.9
		c2.2,6,4.9,12.8,5,12.7c0.1,0-0.2-1.1-3.3-10.9c-3.9-12.2-4-12.4-4.5-14.6c-0.7-2.8-1.1-5.3-2.3-9.9c-0.4-1.6-0.9-3.3-1.5-5.2
		c-1.3-4-2.9-8.5-4.2-11.4c-3.1-6.9-7.7-13-11.2-17c-1.2-1.2-2.5-2.6-3.7-4.4c-2.6-3.7-4-7.3-4.8-10c2.2,1,5.6,3,8.7,6.6
		c1.6,1.9,2.7,3.8,3.4,5.4c0.6,1.5,1.4,3.7,2.5,6.4c5.4,13.3,6.5,13.5,9,20.6c2.6,7.5,5,16.7,5.7,20.7c0.1,0.7,0.7,3.8,2,7.6
		c0.3,0.8,0.5,1.4,0.6,1.8c-0.8-3.4-1.4-6.6-1.8-9.6c-0.6-4.8-0.3-6.8-1-10.1c-0.5-2.5-1.7-6-4.4-10c-0.6-1.4-1.2-3.2-1.5-5.3
		c-0.8-5.6,1-10.1,2-12.2c1.5,1.5,4.5,4.9,5.6,10.2c0.6,2.7,0.5,5.1,0.3,6.8c-0.5,2.4-1,6-0.9,10.4c0,1.6,0.2,3.2,0.5,6.3
		c0.3,4.1,0.6,7.2,1.4,11c0.3,1.5,1,3.8,2.3,8.4c1.1,3.6,1.6,5.4,2.7,9.1c3.1,10.2,5.6,18.5,6.1,28.5c0,0,0.7,14,3.1,17.7
		c0.5,0.8,0.8,1.4,1.3,2.6c0.7,1.8,0.6,2.2,0.4,2.3C704.1,395.9,703.3,395.6,703.1,395.5z"/>
</g>
<g id="Fish1">
	<path class="st6" d="M509.2,316.1c0.1-1,0.6-2.2,5.3-5.8c3.8-2.8,5.7-4.3,9.1-5.8c8-3.7,16.5-5.2,32.2-8.6
		c10.8-2.3,13.7-3.1,20.4-4.1c5.5-0.8,10.1-1.3,13.5-1.6c-0.1,0.5-0.6,2.5,0.5,4.6c1.4,2.7,4.3,3.3,4.7,3.4c2.3,1.6,6.1,3.8,11,4.1
		c3,0.2,5.8-0.3,13.8-3.3c4.1-1.6,9.5-3.7,15.7-6.6c0.3,0.5,0.7,1.4,0.6,2.4c-0.2,0.9-0.7,1.4-2.3,2.9c-3.2,3-3.1,3-3.6,3.4
		c-0.8,0.5-2.2,1.3-4.1,1.7c1.2-0.1,2.8,0,4,1c1.8,1.5,0.6,3.5,2.2,6.7c1.8,3.6,5.5,5.9,6.2,6.4c1.4,0.9,2.5,1.3,2.4,1.7
		c-0.2,0.7-4.7,0.1-5.5,0c-9.1-1.2-10-3.9-16.9-4.5c-4-0.4-6.8,0.2-12,1.3c-0.8,0.2-3.2,0.7-3.2,1.2s1.9,0.4,3.8,1.2
		c3,1.3,5.6,4.4,5.1,5.5s-4.2,1.3-17.5-2.1c-0.8,0.6-2.1,1.4-3.7,2.2c-5.6,2.9-11.6,3.3-23.5,4.1c-15.2,1-16.8,1.1-19,1.9
		c-0.7,0.2-3.3,1.1-6.8,1.4c-0.9,0.1-2.9,0.2-5.5,0c-1-0.1-2.4-0.3-10.1-2.4c-3.7-1-4.4-1.3-5.2-1.6c-1.4-0.6-3.5-1.4-5.7-3
		C512.8,321.8,509.1,319.1,509.2,316.1z"/>
	<path class="st7" d="M513.2,318.1c1-0.5,2,1.3,4.7,2.3c3.1,1.2,6.2,0.4,6.3-0.1c0-0.4-2.5-0.5-3.9-2.5c-0.7-1-1.1-2.4-0.7-2.8
		c0.5-0.4,1.5,0.9,3.6,1.5c0.6,0.2,3.2,1,5.6-0.2c2.2-1.1,3.9-3.9,3.4-6s-2.7-3-2.4-3.7c0.2-0.5,1.6-0.5,2.6-0.1
		c1.9,0.8,2.3,3,3,2.8c0.6-0.1,0.5-1.9,1.5-4.5c0.7-1.7,1-2.6,1.9-3c2-1,5.2,1.6,6.8,3.6c0.8,1,2.8,3.5,2,6.1
		c-0.3,0.9-0.8,1.6-1.2,2c0.6,0.2,1.4,0.6,1.6,1.3c0.1,0.6-0.3,0.9-0.1,1.3c0.2,0.5,0.8,0.4,2.1,0.9c1.1,0.5,1.3,0.8,1.7,0.7
		c0.9-0.2,1-2.8,1-3.5c0.1-3.9-1.4-6.9-1.6-7.4c-1.2-2.4-2-2.8-1.8-3.5c0.5-1.6,4.9-2,11.2-1.7c10,0.4,16.9,1.7,22.5,2.5
		c15,2.2,13.8,0.4,20.8,2.3c12.1,3.3,20.6,10.1,21.4,9c0.6-0.9-5.2-4.1-5.1-9.1c0-4.7,5.2-7.6,4.4-8.6c-0.8-1.2-6.5,3.1-15.3,4.1
		c-4.7,0.5-8.5-0.1-11.4-0.5c-5.3-0.8-6.1-1.9-13.1-3.2c-4.3-0.8-9.1-1.5-9.1-1.8c0-0.4,9.7-0.6,12.3-2.7c0.8-0.7,1.3-1.6,1.3-1.6
		c0.4-0.9,0.6-2.1,0.4-2.5c-0.9-2.2-17,2.6-33.2,5.8c-11.2,2.2-13.7,1.9-22.4,4.4c-4.3,1.3-9.1,3.9-18.6,9c-2.4,1.3-6.1,3.4-6.4,6.6
		c-0.2,2.2,1.1,4.7,1.3,5c0.3,0.6,1,1.8,1.5,1.7C512.6,321.8,512,318.6,513.2,318.1z"/>
	<path class="st8" d="M525.5,315c-0.4,0.1-1.4,0.3-2.5,0c-1.9-0.5-2.9-2.1-2.8-2.1c0,0,2,3.5,4.9,3.7s6.3-2.8,6.3-5.6
		c0-3-3.7-5.4-3.8-5.3c0,0,0.9,0.8,1.5,2.3c0.3,0.8,1,2.5,0.2,4.3C528.5,314.4,526,315,525.5,315z"/>
	<path class="st9" d="M520.1,312.6c0.9,2.1,3.6,3.4,5.9,2.8c2.3-0.5,3.3-2.5,3.5-2.8c0.2-0.4,1-1.9,0.5-3.6c-0.6-2.2-3-3.7-5.2-3.5
		C521.5,305.8,518.9,309.7,520.1,312.6z"/>
	<path class="st10" d="M520.7,312.2c0.7,1.6,2.7,2.5,4.5,2.1c1.7-0.4,2.5-1.9,2.7-2.1c0.2-0.3,0.7-1.4,0.4-2.7
		c-0.5-1.7-2.3-2.8-4-2.7C521.8,307,519.8,309.9,520.7,312.2z"/>
	<path class="st11" d="M523,309.4c0.3,0.8,1.4,1.3,2.3,1.1c0.9-0.2,1.3-1,1.3-1.1c0.1-0.1,0.4-0.7,0.2-1.4c-0.2-0.8-1.2-1.4-2-1.3
		C523.5,306.7,522.5,308.2,523,309.4z"/>
	<path class="st8" d="M517.7,321.9c0.2-0.8,6.5,1.8,10.7-1.4c4.3-3.1,3.8-10,4.7-9.9c0.6,0.1,1.2,3.1,0.3,6
		c-1.1,3.6-4.3,6.7-8.2,7.3C521.2,324.6,517.6,322.5,517.7,321.9z"/>
	<path class="st12" d="M551.7,322.8c0,0.2,3.5-0.6,7.1-1c5.3-0.7,6,0,7.7-1c3.6-1.9,5.4-7.2,4.1-8.5c-1.2-1.3-4.3,2.4-11,3.1
		c-1.1,0.1-3.7,0.3-6.6,1.8c-0.7,0.4-1.3,0.7-1.6,1c0.4,0.5,1,1.1,1.9,1.8c1,0.7,1.6,0.9,1.6,1.2C554.8,322,551.7,322.6,551.7,322.8
		z"/>
	<path class="st13" d="M540.8,316.5c0.5-0.2-0.1-2.5-0.6-3.9c-0.3-0.9-1.5-4.4-3-4.3c-0.4,0-0.9,0.4-1,0.8c-0.1,0.7,0.9,1,1.7,2.2
		c0.8,1.4,0.2,2,1.1,3.6C539.5,315.7,540.4,316.7,540.8,316.5z"/>
	<path class="st13" d="M537.8,322.9c0.6-0.3,1.4-0.8,1.3-1.4c-0.1-0.5-1.2-0.8-2.1-1c-0.9-0.2-1.4-0.4-1.8-0.2
		c-0.5,0.2-0.5,0.5-1.5,2.2c-0.7,1.1-0.8,1.2-0.7,1.4C533.3,324.6,535.9,324,537.8,322.9z"/>
	<path class="st12" d="M564.5,325.2c0-0.6,10.4-1.5,13.2-1.8c4.3-0.4,9.2-0.8,14.7-1.2c-1.6,0.8-3.3,1.6-5.2,2.3
		c-8.7,3.2-16.7,3.1-22.2,2.3c1-0.3,1.8-0.6,1.8-0.9S564.5,325.5,564.5,325.2z"/>
	<path class="st12" d="M594.6,320.9c0.9-0.9,2.2-2,4-2.9c1.7-0.9,3.3-1.4,4.5-1.6c-0.4,0.3-0.9,0.8-1.3,1.5c-0.5,0.8-0.7,1.6-0.7,2
		c1.1,0.7,2.8,1.7,5.1,2.3c3,0.8,5.8,0.5,5.9,0.9c0,0.2-0.8,0.5-1.4,0.7c-2,0.5-3.4,0-7-0.8c-2.3-0.5-2.1-0.4-4.5-0.9
		C597.3,321.7,595.8,321.3,594.6,320.9z"/>
	<path class="st13" d="M550.7,322.5c-1.1,0.1-2.2,0.2-3.3-0.5c-1.5-0.9-1.9-2.6-2.1-3.6c-0.3-1.2-0.5-3.8,0.7-4.4
		c0.5-0.3,1.4-0.1,1.7,0.3c0.4,0.6-0.5,1.4-0.2,2.1s1.3,0.3,2.6,1c0.8,0.5,0.6,0.8,1.7,1.8c1.5,1.4,2.5,1.5,2.5,2
		C554.2,322,552.1,322.4,550.7,322.5z"/>
	<path class="st7" d="M551.9,305.7c-0.1,0,1.1-1.2,0.7-2c-0.3-0.6-1.3-0.5-1.2-0.7c0-0.1,1.6-0.4,2,0.3
		C553.8,304.1,552,305.7,551.9,305.7z"/>
	<path class="st7" d="M553.2,309c-0.1,0,1.1-1.2,0.7-2c-0.3-0.6-1.3-0.5-1.2-0.7c0-0.1,1.6-0.4,2,0.3
		C555.1,307.5,553.3,309,553.2,309z"/>
	<path class="st7" d="M553.9,312.5c-0.1,0,1.1-1.2,0.7-2c-0.3-0.6-1.3-0.5-1.2-0.7c0-0.1,1.6-0.4,2,0.3
		C555.8,310.9,553.9,312.5,553.9,312.5z"/>
	<path class="st7" d="M554.4,315.7c-0.1,0,1.1-1.2,0.7-2c-0.3-0.6-1.3-0.5-1.2-0.7c0-0.1,1.6-0.4,2,0.3
		C556.3,314.2,554.5,315.8,554.4,315.7z"/>
	<path class="st7" d="M555,306c-0.1,0,1.1-1.2,0.7-2c-0.3-0.6-1.3-0.5-1.2-0.7c0-0.1,1.6-0.4,2,0.3C556.9,304.4,555.1,306,555,306z"
		/>
	<path class="st7" d="M556.2,309.5c-0.1,0,1.1-1.2,0.7-2c-0.3-0.6-1.3-0.5-1.2-0.7c0-0.1,1.6-0.4,2,0.3
		C558,308,556.2,309.6,556.2,309.5z"/>
	<path class="st7" d="M556.7,312.9c-0.1,0,1.1-1.2,0.7-2c-0.3-0.6-1.3-0.5-1.2-0.7c0-0.1,1.6-0.4,2,0.3
		C558.5,311.3,556.7,312.9,556.7,312.9z"/>
	<path class="st7" d="M557.7,305.6c-0.1,0,1.1-1.2,0.7-2c-0.3-0.6-1.3-0.5-1.2-0.7c0-0.1,1.6-0.4,2,0.3
		C559.6,304.1,557.8,305.7,557.7,305.6z"/>
	<path class="st7" d="M559.2,309.3c-0.1,0,1.1-1.2,0.7-2c-0.3-0.6-1.3-0.5-1.2-0.7c0-0.1,1.6-0.4,2,0.3
		C561.1,307.7,559.3,309.3,559.2,309.3z"/>
	<path class="st7" d="M559.4,313c-0.1,0,1.1-1.2,0.7-2c-0.3-0.6-1.3-0.5-1.2-0.7c0-0.1,1.6-0.4,2,0.3
		C561.3,311.4,559.5,313,559.4,313z"/>
	<path class="st7" d="M560.7,305.5c-0.1,0,1.1-1.2,0.7-2c-0.3-0.6-1.3-0.5-1.2-0.7c0-0.1,1.6-0.4,2,0.3
		C562.6,304,560.8,305.6,560.7,305.5z"/>
	<path class="st7" d="M561.8,308.9c-0.1,0,1.1-1.2,0.7-2c-0.3-0.6-1.3-0.5-1.2-0.7c0-0.1,1.6-0.4,2,0.3
		C563.7,307.3,561.9,308.9,561.8,308.9z"/>
	<path class="st7" d="M562.3,312.6c-0.1,0,1.1-1.2,0.7-2c-0.3-0.6-1.3-0.5-1.2-0.7c0-0.1,1.6-0.4,2,0.3
		C564.2,311,562.3,312.6,562.3,312.6z"/>
	<path class="st7" d="M563.7,305.4c-0.1,0,1.1-1.2,0.7-2c-0.3-0.6-1.3-0.5-1.2-0.7c0-0.1,1.6-0.4,2,0.3
		C565.6,303.8,563.8,305.4,563.7,305.4z"/>
	<path class="st7" d="M564.6,308.9c-0.1,0,1.1-1.2,0.7-2c-0.3-0.6-1.3-0.5-1.2-0.7c0-0.1,1.6-0.4,2,0.3
		C566.5,307.4,564.7,309,564.6,308.9z"/>
	<path class="st7" d="M565.3,312.3c-0.1,0,1.1-1.2,0.7-2c-0.3-0.6-1.3-0.5-1.2-0.7c0-0.1,1.6-0.4,2,0.3
		C567.2,310.8,565.4,312.4,565.3,312.3z"/>
	<path class="st7" d="M566.8,306.1c-0.1,0,1.1-1.2,0.7-2c-0.3-0.6-1.3-0.5-1.2-0.7c0-0.1,1.6-0.4,2,0.3
		C568.7,304.5,566.9,306.1,566.8,306.1z"/>
	<path class="st7" d="M567.7,309.6c-0.1,0,1.1-1.2,0.7-2c-0.3-0.6-1.3-0.5-1.2-0.7c0-0.1,1.6-0.4,2,0.3
		C569.6,308,567.8,309.6,567.7,309.6z"/>
	<path class="st7" d="M557.9,316.7c-0.1,0,1.1-1.2,0.7-2c-0.3-0.6-1.3-0.5-1.2-0.7c0-0.1,1.6-0.4,2,0.3
		C559.8,315.2,558,316.8,557.9,316.7z"/>
	<path class="st7" d="M561.4,316.6c-0.1,0,1.1-1.2,0.7-2c-0.3-0.6-1.3-0.5-1.2-0.7c0-0.1,1.6-0.4,2,0.3
		C563.3,315.1,561.5,316.7,561.4,316.6z"/>
	<path class="st7" d="M565.3,316.2c-0.1,0,1.1-1.2,0.7-2c-0.3-0.6-1.3-0.5-1.2-0.7c0-0.1,1.6-0.4,2,0.3
		C567.2,314.7,565.4,316.3,565.3,316.2z"/>
	<path class="st7" d="M568.2,314.3c-0.1,0,1.1-1.2,0.7-2c-0.3-0.6-1.3-0.5-1.2-0.7c0-0.1,1.6-0.4,2,0.3
		C570.1,312.8,568.3,314.4,568.2,314.3z"/>
	<path class="st7" d="M570,306.8c-0.1,0,1.1-1.2,0.7-2c-0.3-0.6-1.3-0.5-1.2-0.7c0-0.1,1.6-0.4,2,0.3
		C571.9,305.2,570.1,306.8,570,306.8z"/>
	<path class="st7" d="M570.7,311.6c-0.1,0,1.1-1.2,0.7-2c-0.3-0.6-1.3-0.5-1.2-0.7c0-0.1,1.6-0.4,2,0.3
		C572.6,310,570.8,311.6,570.7,311.6z"/>
	<path class="st7" d="M573.1,307.1c0,0,0.7-0.8,0.5-1.3c-0.2-0.4-0.9-0.4-0.8-0.5c0-0.1,1.1-0.2,1.3,0.2
		C574.4,306,573.1,307.1,573.1,307.1z"/>
	<path class="st7" d="M573.8,309.8c0,0,0.7-0.8,0.5-1.3c-0.2-0.4-0.9-0.4-0.8-0.5c0-0.1,1.1-0.2,1.3,0.2
		C575.1,308.7,573.8,309.8,573.8,309.8z"/>
	<path class="st7" d="M576,307c0,0,0.7-0.8,0.5-1.3c-0.2-0.4-0.9-0.4-0.8-0.5c0-0.1,1.1-0.2,1.3,0.2C577.3,305.9,576,307,576,307z"
		/>
	<path class="st7" d="M576.2,310.1c0,0,0.7-0.8,0.5-1.3c-0.2-0.4-0.9-0.4-0.8-0.5c0-0.1,1.1-0.2,1.3,0.2
		C577.5,309,576.2,310.1,576.2,310.1z"/>
	<path class="st7" d="M574.4,312.8c0,0,0.7-0.8,0.5-1.3c-0.2-0.4-0.9-0.4-0.8-0.5c0-0.1,1.1-0.2,1.3,0.2
		C575.7,311.7,574.4,312.8,574.4,312.8z"/>
	<path class="st7" d="M579,307.7c0,0,0.7-0.8,0.5-1.3c-0.2-0.4-0.9-0.4-0.8-0.5c0-0.1,1.1-0.2,1.3,0.2
		C580.3,306.6,579,307.7,579,307.7z"/>
	<path class="st7" d="M578.6,311.2c0,0,0.7-0.8,0.5-1.3c-0.2-0.4-0.9-0.4-0.8-0.5c0-0.1,1.1-0.2,1.3,0.2
		C579.9,310.1,578.6,311.2,578.6,311.2z"/>
	<path class="st7" d="M582,308.1c0,0,0.7-0.8,0.5-1.3c-0.2-0.4-0.9-0.4-0.8-0.5c0-0.1,1.1-0.2,1.3,0.2
		C583.3,307,582,308.1,582,308.1z"/>
	<path class="st7" d="M581.9,311.1c0,0,0.7-0.8,0.5-1.3c-0.2-0.4-0.9-0.4-0.8-0.5c0-0.1,1.1-0.2,1.3,0.2
		C583.2,310.1,581.9,311.2,581.9,311.1z"/>
	<path class="st7" d="M584.8,308.6c0,0,0.7-0.8,0.5-1.3c-0.2-0.4-0.9-0.4-0.8-0.5c0-0.1,1.1-0.2,1.3,0.2
		C586.1,307.6,584.8,308.7,584.8,308.6z"/>
	<path class="st7" d="M584.6,311.4c0,0,0.5-0.5,0.3-0.8c-0.1-0.2-0.5-0.2-0.5-0.3c0-0.1,0.7-0.2,0.8,0.1
		C585.4,310.7,584.6,311.4,584.6,311.4z"/>
	<path class="st7" d="M587,308.3c0,0,0.5-0.5,0.3-0.8c-0.1-0.2-0.5-0.2-0.5-0.3c0-0.1,0.7-0.2,0.8,0.1
		C587.9,307.6,587.1,308.3,587,308.3z"/>
	<path class="st7" d="M587,310.8c0,0,0.5-0.5,0.3-0.8c-0.1-0.2-0.5-0.2-0.5-0.3c0-0.1,0.7-0.2,0.8,0.1
		C587.8,310.1,587,310.8,587,310.8z"/>
	<path class="st7" d="M590.1,307.6c0,0,0.5-0.5,0.3-0.8c-0.1-0.2-0.5-0.2-0.5-0.3c0-0.1,0.7-0.2,0.8,0.1
		C590.9,307,590.1,307.6,590.1,307.6z"/>
	<path class="st7" d="M589.5,310.5c0,0,0.5-0.5,0.3-0.8c-0.1-0.2-0.5-0.2-0.5-0.3c0-0.1,0.7-0.2,0.8,0.1
		C590.3,309.8,589.5,310.5,589.5,310.5z"/>
	<path class="st7" d="M592.2,308.5c0,0,0.5-0.5,0.3-0.8c-0.1-0.2-0.5-0.2-0.5-0.3c0-0.1,0.7-0.2,0.8,0.1
		C593,307.9,592.2,308.5,592.2,308.5z"/>
	<path class="st7" d="M595,307.7c0,0,0.5-0.5,0.3-0.8c-0.1-0.2-0.5-0.2-0.5-0.3c0-0.1,0.7-0.2,0.8,0.1
		C595.8,307,595,307.7,595,307.7z"/>
	<path class="st7" d="M598.1,307.9c0,0,0.5-0.5,0.3-0.8c-0.1-0.2-0.5-0.2-0.5-0.3c0-0.1,0.7-0.2,0.8,0.1
		C598.9,307.2,598.1,307.9,598.1,307.9z"/>
	<path class="st14" d="M518.6,324.7c0.1-0.4,1.9,0.1,9,0.4c3.6,0.2,5.4,0.2,6.5,0c2.9-0.7,5.3-2.4,7.8-4.2c1.1-0.7,1.9-1.4,2.5-1.9
		c-0.2,0.4-0.4,1.3-0.1,2.1c0.1,0.3,0.5,1.2,2,1.9c3.2,1.5,5.3-0.5,9.7,0.2c2.5,0.4,2.5,1.2,6.5,2c2.2,0.5,3.4,0.5,3.5,0.8
		c0,0.6-5.7,1.2-7.6,1.4c-2.1,0.2-2.5,0.2-3.8,0.4c-5.7,0.6-7.3,1.9-11.3,2.4c-2.8,0.4-4.8,0.1-8.5-0.4
		C526,328.6,518.4,325.4,518.6,324.7z"/>
</g>
<g id="Fish2">
	<path class="st6" d="M361.6,110.4c1.6-1.1,4.2,2.2,10.9,5.6c9.3,4.7,10.8,3.6,15.1,7.7c1.2,1.1,2.6,2.7,5.2,3.6
		c0.6,0.2,4.7,1.6,6.9-0.3c1.6-1.4,0.5-3.2,2.1-4.8c1.2-1.2,3-1.2,6.2-1.2c0.5,0,2.1,0,4.5,0.4c3.7,0.5,6.2,1.5,6.3,1.2
		c0.1-0.3-4.1-1.7-4-3.1c0.1-0.9,2-1.6,3.5-1.8c5.2-0.8,8.4,3.8,15.8,7.8c4.7,2.6,4.9,1.6,10.4,4.2c2.3,1.1,7,3.4,21.2,15.9
		c12.5,11,13.7,13.4,13.2,15.6c-0.7,3.3-5.1,5-8.3,6.1c-15.3,5.6-30.9-0.3-38.4-3.2c-8.6-3.3-15-7.5-20.2-10.8
		c-6.5-4.2-9.8-6.3-12.8-9.4c-2.3-2.3-3-3.6-5.4-4.7c0,0-5-2.4-12-1.6l0,0c0,0-0.5,0-3.5,0c-5.5,0-13.8,3.8-19.5,0.8
		c-2.9-1.6-5-4.9-4.3-6.4c0.5-1.1,2.4-1.2,5.9-1.4c7.2-0.4,14.4-1.2,14.4-1.8c0-0.4-3.9,0.1-7.5-2.3c-4-2.6-5.3-7-5.8-8.7
		C361.3,116.2,359.9,111.5,361.6,110.4z"/>
	<path class="st12" d="M479,158.5c0.5-1.2-1.1-2.7-7.2-8.8c-8.7-8.7-7.8-8.1-9.3-9.3c-3.1-2.6-7.7-6-14-9.2c-2.9-0.5-3.4,0-3.5,0.2
		c-0.4,0.9,2.2,3.2,2.8,3.7c1.4,1.2,2.2,1.5,2.7,2.7c0.1,0.3,0.7,1.6,0.1,2.4c-0.6,0.8-2,0.7-2.9,0.6c-2.8-0.2-3.6-1.6-5.8-1.4
		c-0.6,0.1-1.5,0.2-2.1,0.9c-0.8,0.9-0.3,1.8-0.8,3.1s-1.7,1.9-2.7,2.4c-3.4,1.7-7.6,0.9-10.3,0.3c-3.4-0.7-6.8-1.4-9.6-4.4
		c-1.1-1.2-1.8-2.3-2.1-3.2c1.2-0.1,2.9-0.1,5-0.3c2.6-0.2,7.8-0.7,7.8-1.2c0-0.4-2.3-0.6-7-1.1c-3.2-0.4-7.5-0.9-11.1-1.6
		c-5-0.9-9-1.6-13.2-3.7c-7.5-3.8-11.3-10.2-12.1-9.6c-0.6,0.5,3.5,4.5,2.6,8.5c-1.5,6.2-14.5,8-14.2,8.9c0.1,0.4,3.1-0.5,8.2-0.7
		c4.4-0.1,5.4,0.5,7.4-0.4c3-1.4,2.9-3.7,5-4c2-0.3,3.2,1.8,7.6,5.5c1.9,1.6,5,4.2,8.9,6.5c1.8,1.1,5.2,3,9.9,4.2
		c8.8,2.3,15.8,0.2,17.1,3.2c0,0,0,0,0.3,2.2c0.5,3.3,0.6,4.2,1.2,5.2c0.5,0.9,1.4,2,1.8,1.8s-0.1-1.6-0.1-3.7
		c0-3.2,1.1-5.6,1.4-5.5s-0.5,3,0.8,3.9c0.1,0,0.5,0.3,0.9,0.2c0.8-0.3,0.2-2.3,0.5-4.5c0.1-0.8,0.4-3.7,2.4-5.3
		c2.4-2,6.9-1.6,7.8,0.1c0.8,1.5-1.3,3.5-0.2,4.9c0.7,0.9,2.2,0.8,2.4,0.8c1.5-0.1,2.1-1.3,3.4-2.1c2.3-1.6,5.8-1.7,8.1-0.4
		c2.6,1.4,3.9,4.4,4.3,5.4c0.8,1.9,0.5,2.6,1.4,3.4C474,160.6,478.3,160.2,479,158.5z"/>
	<path class="st7" d="M384.4,121.2c0.2-0.3,4.1,3.8,10.6,4.9c2.5,0.4,4.1,0.2,7.9-0.2c11.1-1.3,16.6-2,22.2-1.4
		c3.7,0.4,6.4,1.1,10.6,2.3c7.2,2,12.8,4.4,12.7,4.9c-0.1,0.4-3-0.4-3.3,0.4c-0.4,1.1,5.4,3.3,5.8,7.2c0,0.4,0.1,1.1-0.4,1.6
		c-0.9,0.9-2.9,0.3-4.6-0.2c-1.1-0.3-1.9-0.6-3.4-0.9c-0.7-0.1-1.3-0.1-2,0.2c-0.1,0.1-0.7,0.4-1,1c-0.5,0.8-0.1,1.3-0.3,2.1
		c-0.3,1.2-1.3,1.9-2.1,2.5c-1.4,0.9-2.8,1.2-3.9,1.3c-2.6,0.3-6.2,0.7-10.5-1c-4.1-1.6-9-5.3-8.4-7.2c0.9-2.6,12.2-0.6,12.2-1.3
		c0-0.3-2.6-0.9-5.4-1.3c-4.6-0.7-8-0.9-9.5-1c0,0-6.9-0.5-13.6-3.4C389.1,128.1,384.1,121.6,384.4,121.2z"/>
	<path class="st9" d="M455.4,156.5c-0.1,3.3,2.6,5.4,3,5.7c2.6,2,6.8,2.4,9.6,0c1.9-1.6,2.9-4.3,2.3-6.9c-0.8-3.6-4.5-5.9-8-5.6
		C458.6,150.1,455.5,153.1,455.4,156.5z"/>
	<path class="st10" d="M458.8,155.5c-0.1,2.4,1.9,4,2.2,4.2c1.9,1.4,5,1.8,7.1,0c1.4-1.2,2.1-3.2,1.7-5c-0.6-2.6-3.3-4.4-5.9-4.1
		C461.2,150.8,458.9,153,458.8,155.5z"/>
	<path class="st11" d="M460.3,153.9c0,1.2,0.9,2,1,2.1c0.9,0.7,2.4,0.9,3.3,0c0.7-0.6,1-1.6,0.8-2.6c-0.3-1.3-1.5-2.2-2.8-2.1
		C461.4,151.5,460.3,152.6,460.3,153.9z"/>
	<path class="st15" d="M479.1,157.9c0.6,0.2,0.9,1.9,0.5,3.3c-0.8,2.9-4.4,4-5.8,4.5c-3.2,1.1-5.5,0.4-6,0.3
		c-0.6-0.2-2.8-0.8-2.9-1.8c0-1,2.1-1.2,4.5-3.7c1.4-1.5,1.6-2.5,1.7-3.2c0.1-0.8-0.1-1.5-0.3-2.1c-0.6-1.9-1.8-3.1-1.8-3.1
		s1.3,1.1,2.1,3.2c0.8,1.9,0.3,2.6,1.1,3.5c0.9,1.1,2.8,1.6,4.2,1.1C478,159.4,478.4,157.7,479.1,157.9z"/>
	<path class="st13" d="M449.7,150.7c0.5,0.3-2,3.4-1.6,8.1c0.2,2.3,0.9,3.6,0.6,3.7c-0.4,0.2-2.9-2.6-2.8-5.9
		C446.1,153.1,449.2,150.5,449.7,150.7z"/>
	<path class="st13" d="M454.3,159.2c0.6-0.3,1.4,2.4,4.3,4.1c1.7,1,4.3,1.7,5.4,0.9c0.2-0.1,0.5-0.5,0.8-0.4s0.2,0.7,0.3,1
		c0.4,1.6,5.5,1.2,5.5,1.5s-7.3,2.9-12.9-0.3c-0.9-0.5-2.6-1.5-3.4-3.6C453.9,161,453.8,159.4,454.3,159.2z"/>
	<path class="st12" d="M383.7,139.5c-0.3,0.9,6.5,3.9,10.5,5.6c6.1,2.7,9.2,4,9.8,3.3c1.2-1.4-3.2-9.1-8.6-9.7
		c-1.7-0.2-2.3,0.5-6.5,0.6C385.4,139.5,383.9,139.1,383.7,139.5z"/>
	<path class="st12" d="M409.8,153.5c-0.3,0.7,4.6,3.6,9.2,5.6c4.1,1.7,9.1,3.1,9.4,2.5c0.3-0.7-4.3-3.4-8.4-5.2
		C415.6,154.4,410.1,152.8,409.8,153.5z"/>
	<path class="st16" d="M447.8,138.3c0.2-0.1-1.5-1.7-1.1-2.8c0.6-1.4,4-0.9,4-1s-5.2-1-5.7,0.5C444.5,136.2,447.5,138.5,447.8,138.3
		z"/>
	<path class="st16" d="M443.6,142.7c0.2-0.1-1.5-1.7-1.1-2.8c0.6-1.4,4-0.9,4-1s-5.2-1-5.7,0.5C440.4,140.6,443.4,142.9,443.6,142.7
		z"/>
	<path class="st16" d="M439.7,147.1c0.2-0.1-1.5-1.7-1.1-2.8c0.6-1.4,4-0.9,4-1s-5.2-1-5.7,0.5C436.5,145,439.5,147.3,439.7,147.1z"
		/>
	<path class="st16" d="M442.6,135.2c0.2-0.1-1.5-1.7-1.1-2.8c0.6-1.4,4-0.9,4-1s-5.2-1-5.7,0.5C439.4,133,442.4,135.3,442.6,135.2z"
		/>
	<path class="st16" d="M434.7,151.3c0.2-0.1-1.5-1.7-1.1-2.8c0.6-1.4,4-0.9,4-1s-5.2-1-5.7,0.5C431.5,149.2,434.5,151.5,434.7,151.3
		z"/>
	<path class="st16" d="M438.6,139.4c0.2-0.1-1.5-1.7-1.1-2.8c0.6-1.4,4-0.9,4-1s-5.2-1-5.7,0.5C435.4,137.3,438.4,139.6,438.6,139.4
		z"/>
	<path class="st16" d="M433.9,144.3c0.2-0.1-1.5-1.7-1.1-2.8c0.6-1.4,4-0.9,4-1s-5.2-1-5.7,0.5C430.7,142.2,433.7,144.5,433.9,144.3
		z"/>
	<path class="st16" d="M436.3,133c0.2-0.1-1.5-1.7-1.1-2.8c0.6-1.4,4-0.9,4-1s-5.2-1-5.7,0.5C433.1,130.9,436.1,133.2,436.3,133z"/>
	<path class="st16" d="M432.5,137.3c0.1-0.1-1.2-1.3-0.8-2.2c0.5-1,3.1-0.7,3.1-0.8s-4-0.8-4.4,0.4
		C430.1,135.7,432.4,137.4,432.5,137.3z"/>
	<path class="st16" d="M429.6,147.2c0.1-0.1-1.2-1.3-0.8-2.2c0.5-1,3.1-0.7,3.1-0.8s-4-0.8-4.4,0.4
		C427.2,145.6,429.5,147.3,429.6,147.2z"/>
	<path class="st16" d="M428.4,141c0.1-0.1-1.2-1.3-0.8-2.2c0.5-1,3.1-0.7,3.1-0.8s-4-0.8-4.4,0.4C425.9,139.4,428.2,141.2,428.4,141
		z"/>
	<path class="st16" d="M430.6,129.8c0.1-0.1-1.2-1.3-0.8-2.2c0.5-1,3.1-0.7,3.1-0.8c0-0.1-4-0.8-4.4,0.4
		C428.1,128.2,430.4,129.9,430.6,129.8z"/>
	<path class="st16" d="M428.6,134.7c0.1-0.1-1.2-1.3-0.8-2.2c0.5-1,3.1-0.7,3.1-0.8s-4-0.8-4.4,0.4
		C426.2,133,428.5,134.8,428.6,134.7z"/>
	<path class="st16" d="M425.1,127.9c0.1-0.1-0.7-1.1-0.5-1.7c0.3-0.8,1.9-0.6,1.9-0.6c0-0.1-2.4-0.6-2.7,0.3
		C423.6,126.6,425,128,425.1,127.9z"/>
	<path class="st16" d="M424.6,132.4c0.1-0.1-0.7-1.1-0.5-1.7c0.3-0.8,1.9-0.6,1.9-0.6c0-0.1-2.4-0.6-2.7,0.3
		C423.1,131.1,424.5,132.5,424.6,132.4z"/>
	<path class="st16" d="M424.8,137.5c0.1-0.1-0.7-1.1-0.5-1.7c0.3-0.8,1.9-0.6,1.9-0.6c0-0.1-2.4-0.6-2.7,0.3
		C423.3,136.2,424.7,137.6,424.8,137.5z"/>
	<path class="st16" d="M424.6,144c0.1-0.1-0.7-1.1-0.5-1.7c0.3-0.8,1.9-0.6,1.9-0.6c0-0.1-2.4-0.6-2.7,0.3
		C423.1,142.7,424.5,144.1,424.6,144z"/>
	<path class="st16" d="M421.6,140.7c0.1-0.1-0.7-1.1-0.5-1.7c0.3-0.8,1.9-0.6,1.9-0.6c0-0.1-2.4-0.6-2.7,0.3
		C420.1,139.4,421.5,140.8,421.6,140.7z"/>
	<path class="st16" d="M421,135.6c0.1-0.1-0.7-1.1-0.5-1.7c0.3-0.8,1.9-0.6,1.9-0.6c0-0.1-2.4-0.6-2.7,0.3
		C419.5,134.3,420.9,135.7,421,135.6z"/>
	<path class="st16" d="M421,130.6c0.1-0.1-0.7-1.1-0.5-1.7c0.3-0.8,1.9-0.6,1.9-0.6c0-0.1-2.4-0.6-2.7,0.3
		C419.5,129.3,420.9,130.7,421,130.6z"/>
	<path class="st16" d="M418,127.9c0.1-0.1-0.7-1.1-0.5-1.7c0.3-0.8,1.9-0.6,1.9-0.6c0-0.1-2.4-0.6-2.7,0.3
		C416.5,126.6,417.9,128,418,127.9z"/>
	<path class="st16" d="M417.5,133.7c0.1-0.1-0.7-1.1-0.5-1.7c0.3-0.8,1.9-0.6,1.9-0.6c0-0.1-2.4-0.6-2.7,0.3
		C416,132.4,417.4,133.8,417.5,133.7z"/>
	<path class="st16" d="M417.5,139.4c0.1-0.1-0.7-1.1-0.5-1.7c0.3-0.8,1.9-0.6,1.9-0.6c0-0.1-2.4-0.6-2.7,0.3
		C416,138.1,417.4,139.5,417.5,139.4z"/>
	<path class="st16" d="M415.4,130.1c0-0.1-0.5-0.7-0.3-1.2c0.2-0.6,1.2-0.4,1.2-0.4c0-0.1-1.6-0.4-1.8,0.2
		C414.4,129.3,415.3,130.2,415.4,130.1z"/>
	<path class="st16" d="M413.7,127.2c0-0.1-0.5-0.7-0.3-1.2c0.2-0.6,1.2-0.4,1.2-0.4c0-0.1-1.6-0.4-1.8,0.2
		C412.8,126.3,413.7,127.2,413.7,127.2z"/>
	<path class="st16" d="M414.2,133.1c0-0.1-0.5-0.7-0.3-1.2c0.2-0.6,1.2-0.4,1.2-0.4c0-0.1-1.6-0.4-1.8,0.2
		C413.2,132.2,414.1,133.2,414.2,133.1z"/>
	<path class="st16" d="M414.2,137.3c0-0.1-0.5-0.7-0.3-1.2c0.2-0.6,1.2-0.4,1.2-0.4c0-0.1-1.6-0.4-1.8,0.2
		C413.2,136.4,414.1,137.4,414.2,137.3z"/>
	<path class="st16" d="M411.8,130.7c0-0.1-0.5-0.7-0.3-1.2c0.2-0.6,1.2-0.4,1.2-0.4c0-0.1-1.6-0.4-1.8,0.2
		C410.8,129.8,411.7,130.8,411.8,130.7z"/>
	<path class="st16" d="M408.9,128c0-0.1-0.5-0.7-0.3-1.2c0.2-0.6,1.2-0.4,1.2-0.4c0-0.1-1.6-0.4-1.8,0.2
		C407.9,127.2,408.9,128.1,408.9,128z"/>
	<path class="st16" d="M411.2,135.3c0-0.1-0.5-0.7-0.3-1.2c0.2-0.6,1.2-0.4,1.2-0.4c0-0.1-1.6-0.4-1.8,0.2
		C410.2,134.4,411.1,135.4,411.2,135.3z"/>
	<path class="st16" d="M408.9,132.9c0-0.1-0.5-0.7-0.3-1.2c0.2-0.6,1.2-0.4,1.2-0.4c0-0.1-1.6-0.4-1.8,0.2
		C407.9,132,408.9,132.9,408.9,132.9z"/>
	<path class="st16" d="M406.7,130.3c0-0.1-0.5-0.7-0.3-1.2c0.2-0.6,1.2-0.4,1.2-0.4c0-0.1-1.6-0.4-1.8,0.2
		C405.7,129.4,406.6,130.4,406.7,130.3z"/>
	<path class="st16" d="M403.7,128.5c0-0.1-0.5-0.7-0.3-1.2c0.2-0.6,1.2-0.4,1.2-0.4c0-0.1-1.6-0.4-1.8,0.2
		C402.7,127.7,403.6,128.6,403.7,128.5z"/>
	<path class="st16" d="M405.5,133.6c0-0.1-0.5-0.7-0.3-1.2c0.2-0.6,1.2-0.4,1.2-0.4c0-0.1-1.6-0.4-1.8,0.2
		C404.5,132.7,405.4,133.6,405.5,133.6z"/>
	<path class="st16" d="M402.5,131.4c0-0.1-0.5-0.7-0.3-1.2c0.2-0.6,1.2-0.4,1.2-0.4c0-0.1-1.6-0.4-1.8,0.2
		C401.5,130.6,402.4,131.5,402.5,131.4z"/>
	<path class="st16" d="M400.3,129.1c0-0.1-0.4-0.6-0.3-0.9c0.1-0.4,1-0.3,1-0.3c0-0.1-1.3-0.3-1.4,0.2
		C399.5,128.4,400.2,129.1,400.3,129.1z"/>
	<path class="st14" d="M431,162c0.2-0.6,7.2,3,11.7,0.8c0.5-0.2,1.7-0.9,3.1-0.7s2.3,1.2,2.7,1.6c3.7,3.8,11.5,4.6,12.3,4.6
		c4.6,0.4,8-1.1,8.1-0.9c0,0.2-3,1.4-6.7,1.9c-4.4,0.7-7.8,0.2-12.5-0.6c-5.2-0.8-9.9-2.1-14.4-4.1C432.5,163.3,430.9,162.3,431,162
		z"/>
</g>
<g id="Rock">
	<path class="st17" d="M702.1,398.7c-1.5-3.9-3.1-7.9-4.6-11.8c4.4-3.8,8.9-7.6,13.3-11.4c4,1.3,8.1,2.5,12.1,3.8
		c1.1,2.9,2.3,5.8,3.4,8.8c-0.9,2-1.7,4-2.6,6c-1.7,1.2-4.1,2.6-7.1,3.6C710.4,399.9,705,399.3,702.1,398.7z"/>
	<path class="st17" d="M782.4,399.8c-1.1-2.9-2.3-5.8-3.4-8.7c3.3-2.8,6.5-5.6,9.8-8.4c3,0.9,5.9,1.9,8.9,2.8
		c0.8,2.2,1.7,4.3,2.5,6.5c-0.6,1.5-1.3,3-1.9,4.5c-1.3,0.9-3,1.9-5.2,2.7C788.5,400.6,784.5,400.2,782.4,399.8z"/>
	<path class="st17" d="M773.7,402c1.1-2.9,2.3-5.8,3.4-8.7c-3.3-2.8-6.5-5.6-9.8-8.4c-3,0.9-5.9,1.9-8.9,2.8
		c-0.8,2.2-1.7,4.3-2.5,6.5c0.6,1.5,1.3,3,1.9,4.5c1.3,0.9,3,1.9,5.2,2.7C767.6,402.9,771.6,402.4,773.7,402z"/>
	<path class="st17" d="M731.4,399.7c-1.3-3.4-2.7-6.8-4-10.2c3.8-3.3,7.7-6.6,11.5-9.8c3.5,1.1,7,2.2,10.4,3.3c1,2.5,2,5.1,2.9,7.6
		c-0.7,1.7-1.5,3.5-2.2,5.2c-1.5,1.1-3.6,2.3-6.2,3.1C738.6,400.7,733.9,400.2,731.4,399.7z"/>
	<path class="st18" d="M693.4,399.8c-0.6-1.6-1.2-3.2-1.9-4.8c1.8-1.5,3.6-3.1,5.4-4.6c1.6,0.5,3.2,1,4.9,1.5
		c0.5,1.2,0.9,2.4,1.4,3.5c-0.3,0.8-0.7,1.6-1,2.4c-0.7,0.5-1.7,1-2.9,1.5C696.7,400.3,694.5,400.1,693.4,399.8z"/>
	<path class="st19" d="M709.9,399.8c-0.6-1.6-1.2-3.2-1.9-4.8c1.8-1.5,3.6-3.1,5.4-4.6c1.6,0.5,3.2,1,4.9,1.5
		c0.5,1.2,0.9,2.4,1.4,3.5c-0.3,0.8-0.7,1.6-1,2.4c-0.7,0.5-1.7,1-2.9,1.5C713.3,400.3,711.1,400.1,709.9,399.8z"/>
	<path class="st20" d="M747.1,399.8c-0.6-1.6-1.2-3.2-1.9-4.8c1.8-1.5,3.6-3.1,5.4-4.6c1.6,0.5,3.2,1,4.9,1.5
		c0.5,1.2,0.9,2.4,1.4,3.5c-0.3,0.8-0.7,1.6-1,2.4c-0.7,0.5-1.7,1-2.9,1.5C750.5,400.3,748.3,400.1,747.1,399.8z"/>
	<path class="st20" d="M775.6,400.8c-0.6-1.6-1.2-3.2-1.9-4.8c1.8-1.5,3.6-3.1,5.4-4.6c1.6,0.5,3.2,1,4.9,1.5
		c0.5,1.2,0.9,2.4,1.4,3.5c-0.3,0.8-0.7,1.6-1,2.4c-0.7,0.5-1.7,1-2.9,1.5C778.9,401.2,776.7,401,775.6,400.8z"/>
	<path class="st20" d="M796,399.8c-0.6-1.6-1.2-3.2-1.9-4.8c1.8-1.5,3.6-3.1,5.4-4.6c1.6,0.5,3.2,1,4.9,1.5c0.5,1.2,0.9,2.4,1.4,3.5
		c-0.3,0.8-0.7,1.6-1,2.4c-0.7,0.5-1.7,1-2.9,1.5C799.4,400.3,797.2,400.1,796,399.8z"/>
	<path class="st19" d="M153.8,400.8l-4.9-10.9c3.1-3.1,6.2-6.2,9.3-9.2c4.2-1.3,8.4-2.6,12.6-3.9c4.6,4.8,9.1,9.6,13.7,14.5
		c0.2,2.4,0.4,4.8,0.5,7.1c-4.7,1.8-9.4,3.5-14.1,5.3L153.8,400.8z"/>
	<path class="st21" d="M179.9,400.7l-3.1-6.9c2-2,3.9-3.9,5.9-5.9c2.7-0.8,5.3-1.7,8-2.5c2.9,3.1,5.8,6.1,8.7,9.2
		c0.1,1.5,0.2,3,0.3,4.5c-3,1.1-6,2.2-9,3.4L179.9,400.7z"/>
</g>
</svg>
